<svg width="114" height="100" viewBox="0 0 114 100" fill="none" xmlns="http://www.w3.org/2000/svg">
<path d="M93.2404 24.3898C90.3408 12.2719 79.9539 2.95509 67.0015 1.66796C60.727 1.04389 54.453 1.06955 48.1785 1.72954C34.541 3.17936 23.7466 13.8398 21.9873 27.116C20.1347 26.2338 18.0556 25.7432 15.8678 25.7432C7.98388 25.7432 1.59082 32.1311 1.59082 40.0207C1.59082 47.9046 7.98388 54.2977 15.8678 54.2977C19.9078 54.2977 23.5562 52.6154 26.1515 49.9169C29.16 54.4265 33.8553 57.672 39.3713 58.7867C41.4898 59.2147 43.6084 59.5678 45.7269 59.8491C43.9974 62.4634 42.994 65.5529 42.994 68.8662C42.994 78.2533 51.0196 85.8632 60.9189 85.8632C70.8188 85.8632 78.8438 78.2533 78.8438 68.8662C78.8438 65.1726 77.5973 61.7567 75.4869 58.9689C75.9314 58.8837 76.3763 58.796 76.8208 58.7046C81.1507 57.8121 84.9736 55.5391 87.8255 52.3649C88.9751 52.6641 90.1807 52.8242 91.4236 52.8242C99.3076 52.8242 105.701 46.4312 105.701 38.5472C105.701 31.2792 100.266 25.2833 93.2404 24.3898Z" fill="#CC9543"/>
<path d="M91.4237 54.0491C90.1017 54.0491 88.7869 53.8813 87.5151 53.5508L88.1289 51.1911C89.2005 51.4697 90.3085 51.6114 91.4237 51.6114C98.6241 51.6114 104.482 45.7536 104.482 38.5533C104.482 31.9929 99.5853 26.4235 93.0912 25.5988L93.3986 23.1801C101.107 24.1593 106.92 30.7679 106.92 38.5533C106.92 47.0972 99.9687 54.0491 91.4237 54.0491Z" fill="#BD8135"/>
<path d="M51.3619 53.8383C60.2846 55.5124 69.2073 55.4944 78.1305 53.7844C83.6059 52.7349 87.9646 48.8304 89.32 43.7932C90.0292 41.1584 90.4059 38.5236 90.4511 35.8882C90.6266 25.5712 82.172 16.9482 71.1144 15.9285C66.6284 15.5148 62.1429 15.5287 57.6575 15.97C46.9909 17.0201 38.7544 25.3941 38.7544 35.354C38.7544 38.053 39.1029 40.7519 39.7998 43.4509C41.1588 48.7185 45.6448 52.7657 51.3619 53.8383Z" fill="#F5E9C1"/>
<path d="M15.6443 45.3047C18.5118 45.3047 20.8364 42.9801 20.8364 40.1126C20.8364 37.245 18.5118 34.9204 15.6443 34.9204C12.7768 34.9204 10.4521 37.245 10.4521 40.1126C10.4521 42.9801 12.7768 45.3047 15.6443 45.3047Z" fill="#BD8135"/>
<path d="M57.8944 61.868C51.624 61.868 45.3551 61.2393 39.1288 59.9809C33.8407 58.9124 29.2198 56.0148 25.9732 51.7628C23.1639 54.1924 19.6263 55.5154 15.866 55.5154C7.32109 55.5154 0.369141 48.5635 0.369141 40.0185C0.369141 31.4736 7.32109 24.5222 15.866 24.5222C17.6469 24.5222 19.3769 24.8178 21.0274 25.4033C22.1749 19.2669 25.2455 13.5323 29.7766 9.11508C34.7188 4.29757 41.2073 1.245 48.0474 0.519835C54.3763 -0.150931 60.794 -0.173 67.1234 0.456196C74.0933 1.14852 80.7035 4.18313 85.736 9.00115C90.7367 13.7884 94.0172 20.1681 94.9728 26.965C94.9753 26.983 94.9774 27.0015 94.9794 27.0194C95.2042 28.6504 95.3028 30.2614 95.273 31.8097C95.2047 35.6357 94.7038 39.5156 93.7847 43.34C93.1293 46.0929 92.1055 48.5271 90.7419 50.5748C90.7296 50.5958 90.7167 50.6168 90.7029 50.6379C87.5168 55.4528 82.6737 58.742 77.0658 59.8988C70.7061 61.2116 64.2992 61.868 57.8944 61.868ZM26.1513 48.6969C26.1872 48.6969 26.2236 48.6985 26.2596 48.7021C26.6275 48.7349 26.9606 48.9325 27.1654 49.2399C30.0676 53.5904 34.4879 56.5567 39.6113 57.5919C51.8739 60.0692 64.3095 60.043 76.5732 57.5113C81.5205 56.4905 85.7981 53.596 88.6264 49.3574C88.6408 49.3323 88.6562 49.3077 88.6726 49.2835C89.8956 47.4647 90.8183 45.2738 91.4137 42.7724C92.2923 39.1179 92.7706 35.4151 92.8358 31.7641C92.864 30.3261 92.7706 28.8265 92.5581 27.3053C92.5556 27.2884 92.5535 27.2714 92.552 27.255C91.6636 21.0164 88.6459 15.1612 84.0506 10.7625C79.4097 6.31962 73.3127 3.52109 66.8827 2.88214C60.7196 2.26988 54.4687 2.29092 48.305 2.94424C42.0069 3.61193 36.0311 6.42329 31.4794 10.861C26.957 15.2695 24.0153 21.1001 23.1967 27.2786C23.1454 27.6651 22.9129 28.0038 22.5701 28.1896C22.2278 28.3759 21.8167 28.3866 21.4646 28.2193C19.7074 27.3838 17.8239 26.9604 15.8666 26.9604C8.66621 26.9604 2.80792 32.8182 2.80792 40.0191C2.80792 47.2199 8.66621 53.0777 15.8666 53.0777C19.4457 53.0777 22.7867 51.6546 25.2732 49.0711C25.5041 48.8304 25.8218 48.6969 26.1513 48.6969Z" fill="#BD8135"/>
<path d="M64.7882 59.9178C59.1659 74.5971 72.7044 76.8275 78.185 74.5971C86.1618 71.3511 100.73 50.2007 89.0779 45.3046C77.4254 40.4086 74.5576 63.7191 74.5576 63.7191L64.7882 59.9178Z" fill="#CC9543"/>
<path d="M73.9299 76.5643C70.7531 76.5643 67.3064 75.5728 65.0134 73.327C62.8014 71.1607 60.7702 67.0001 63.6498 59.4821C63.8905 58.8534 64.5961 58.5388 65.2243 58.78C65.853 59.0207 66.1676 59.7259 65.9269 60.354C64.0224 65.3276 64.2964 69.2115 66.7198 71.5857C69.6744 74.4796 75.1031 74.5361 77.7261 73.4686C80.362 72.396 83.9965 68.9986 86.986 64.8138C90.2859 60.1934 92.1899 55.5581 92.2094 52.097C92.2253 49.3087 91.0465 47.455 88.6062 46.4296C86.6662 45.6141 84.9655 45.6562 83.4079 46.5584C77.5516 49.9502 75.7852 63.731 75.7682 63.8695C75.6856 64.5377 75.0759 65.0125 74.4092 64.9303C73.741 64.8477 73.2663 64.2401 73.3484 63.5719C73.4244 62.9565 75.2827 48.4506 82.1839 44.4502C84.4163 43.1564 86.8941 43.066 89.551 44.1823C92.9064 45.5921 94.6692 48.3341 94.6477 52.1114C94.6256 56.0641 92.5558 61.2111 88.97 66.2313C85.6819 70.8353 81.7256 74.474 78.6453 75.7278C77.3058 76.2707 75.6574 76.5643 73.9299 76.5643Z" fill="#BD8135"/>
<path d="M101.388 27.2555L89.3936 26.301C85.3084 25.9761 81.5281 27.9468 79.0791 31.219L77.6965 31.1092C73.8977 30.8069 70.5423 33.9827 70.2072 38.1931C69.8726 42.4034 72.6829 46.0698 76.4822 46.3726L77.8669 46.4824C79.7678 50.0995 83.1883 52.642 87.272 52.9668L99.2672 53.9209C105.915 54.45 111.779 48.9125 112.365 41.5454C112.95 34.1844 108.036 27.7846 101.388 27.2555Z" fill="#95A1B3"/>
<path d="M107.727 41.1789C107.333 46.1319 103.693 49.8978 99.6129 49.573C95.5334 49.2486 92.5347 44.9546 92.9289 40.0016C93.323 35.0486 96.9627 31.2827 101.042 31.6075C105.123 31.9319 108.121 36.2259 107.727 41.1789Z" fill="#E6FCFC"/>
<path d="M99.614 50.792C99.5817 50.792 99.5489 50.7904 99.516 50.7879C97.1732 50.6016 95.0701 49.3344 93.5936 47.2205C92.1679 45.1795 91.5007 42.5811 91.7137 39.9042C91.9267 37.2278 92.9967 34.7675 94.7267 32.9779C96.5184 31.1237 98.7955 30.2061 101.139 30.3918C101.81 30.4452 102.31 31.0328 102.257 31.7036C102.204 32.3749 101.618 32.8768 100.945 32.8224C99.3431 32.6941 97.7562 33.352 96.4799 34.6725C95.1419 36.0572 94.3121 37.9838 94.1437 40.0982C93.9754 42.2126 94.4902 44.2465 95.5925 45.8251C96.6441 47.3309 98.1057 48.2305 99.7095 48.3578C100.38 48.4112 100.881 48.9988 100.828 49.6696C100.777 50.308 100.244 50.792 99.614 50.792Z" fill="#70838E"/>
<path d="M100.155 55.1787C99.8281 55.1787 99.5002 55.1659 99.1717 55.1397L87.177 54.1857C79.8714 53.6042 74.4468 46.6045 75.0852 38.5826C75.3926 34.7181 77.0442 31.1887 79.7365 28.6442C82.4631 26.0674 85.9288 24.8044 89.4926 25.0877L101.487 26.0423C105.049 26.3256 108.269 28.1208 110.555 31.0964C112.812 34.0355 113.886 37.7819 113.579 41.6454C113.272 45.5088 111.619 49.0382 108.925 51.5837C106.449 53.9219 103.366 55.1787 100.155 55.1787ZM88.5149 27.4859C85.9242 27.4859 83.427 28.5098 81.4111 30.4153C79.1581 32.5446 77.775 35.5136 77.5153 38.775C76.9836 45.4575 81.4044 51.2799 87.3699 51.7546L99.3647 52.7092C102.229 52.9365 105.03 51.9075 107.25 49.8106C109.504 47.6807 110.888 44.7118 111.147 41.4509C111.407 38.1899 110.51 35.0399 108.62 32.58C106.761 30.1582 104.158 28.6992 101.293 28.4713L89.2981 27.5167C89.0368 27.4967 88.7751 27.4859 88.5149 27.4859Z" fill="#70838E"/>
<path d="M78.3381 27.2555L66.3433 26.301C62.2581 25.9761 58.4778 27.9468 56.0288 31.219L54.6462 31.1092C50.8474 30.8069 47.4916 33.9827 47.1564 38.1931C46.8218 42.4034 49.6322 46.0698 53.4314 46.3726L54.8161 46.4824C56.717 50.0995 60.1376 52.642 64.2212 52.9668L76.2164 53.9209C82.8646 54.45 88.7285 48.9125 89.3146 41.5454C89.9002 34.1844 84.9867 27.7846 78.3381 27.2555Z" fill="#95A1B3"/>
<path d="M84.677 41.1789C84.2828 46.1319 80.6431 49.8978 76.5626 49.573C72.4831 49.2486 69.4844 44.9546 69.8786 40.0016C70.2727 35.0486 73.9124 31.2827 77.9919 31.6075C82.0724 31.9319 85.0711 36.2259 84.677 41.1789Z" fill="#E6FCFC"/>
<path d="M76.5644 50.7918C76.5321 50.7918 76.4992 50.7903 76.4664 50.7877C71.7166 50.41 68.2165 45.5279 68.664 39.9046C69.1116 34.2814 73.3343 30.0156 78.0891 30.3917C78.7604 30.4451 79.2613 31.0327 79.2074 31.7035C79.1541 32.3748 78.5664 32.8767 77.8957 32.8223C74.4921 32.5508 71.4354 35.8148 71.0941 40.0981C70.7533 44.3813 73.2501 48.0862 76.6599 48.3577C77.3306 48.4111 77.8315 48.9987 77.7781 49.6695C77.7273 50.3079 77.1936 50.7918 76.5644 50.7918Z" fill="#70838E"/>
<path d="M87.5044 31.0953C85.2191 28.1197 81.9987 26.3245 78.4365 26.0412L66.4417 25.0867C62.1631 24.7474 58.1775 26.6838 55.478 29.955L54.7441 29.8949C50.2823 29.5418 46.3285 33.221 45.938 38.0965C45.7532 40.4358 46.4055 42.7062 47.7753 44.4901C49.1748 46.3125 51.1506 47.4113 53.3395 47.5837L54.0688 47.6407C56.2171 51.3004 59.848 53.8439 64.1266 54.1847L76.1214 55.1387C76.4468 55.1649 76.7696 55.1777 77.0914 55.1777C83.9904 55.1777 89.9185 49.3092 90.5282 41.6439C90.8362 37.7809 89.762 34.0345 87.5044 31.0953ZM49.7096 43.0054C48.7078 41.7008 48.2315 40.0257 48.3691 38.29C48.6318 35.0086 51.0423 32.4713 53.8819 32.3188C52.8714 34.1756 52.2166 36.2983 52.0349 38.582C51.8532 40.8643 52.1637 43.0629 52.8673 45.0552C51.6397 44.7924 50.5358 44.0816 49.7096 43.0054ZM88.0982 41.4509C87.5665 48.1329 82.283 53.1829 76.3149 52.7087L64.3201 51.7541C58.3546 51.2794 53.9338 45.4565 54.465 38.7745C54.9735 32.3835 59.8301 27.4859 65.4718 27.4859C65.7289 27.4859 65.9881 27.4962 66.2477 27.5167L78.2425 28.4713C81.1078 28.6992 83.7102 30.1582 85.5701 32.58C87.4598 35.0399 88.3574 38.1905 88.0982 41.4509Z" fill="#70838E"/>
<path d="M45.2594 62.1739C39.3108 76.9666 50.2884 76.7244 55.5159 74.5966C63.4928 71.3506 78.0608 50.2002 66.4088 45.3041C54.7564 40.4081 51.8886 63.7186 51.8886 63.7186C51.8886 63.7186 45.5473 61.4579 45.2594 62.1739Z" fill="#CC9543"/>
<path d="M50.2351 76.862C50.1787 76.862 50.1233 76.8615 50.0673 76.861C47.5623 76.8281 45.5285 76.0639 44.1864 74.6516C41.4397 71.7617 41.761 66.6306 45.141 59.4016C45.4264 58.7913 47.6347 59.8244 47.3499 60.4341C44.4785 66.5757 43.9955 70.9113 45.9539 72.9719C47.8241 74.9395 52.0391 74.6962 55.0567 73.4681C57.6926 72.3955 61.3277 68.9981 64.3166 64.8134C67.6165 60.1929 69.5206 55.5581 69.5401 52.0965C69.556 49.3082 68.3771 47.454 65.9368 46.4286C63.9969 45.6131 62.2961 45.6552 60.7385 46.5574C58.3752 47.9267 56.3085 51.3082 54.7627 56.3367C53.551 60.2781 53.1035 63.8331 53.0988 63.8685C53.0162 64.5367 52.4081 65.0115 51.7399 64.9293C51.0717 64.8467 50.5969 64.2391 50.6791 63.5709C50.755 62.9555 52.6128 48.4496 59.5145 44.4497C61.747 43.1559 64.2253 43.0656 66.8816 44.1818C70.2375 45.5916 71.9999 48.3337 71.9788 52.1114C71.9563 56.0641 69.887 61.2106 66.3012 66.2314C63.013 70.8354 59.0567 74.474 55.9764 75.7273C54.1941 76.4509 52.1125 76.862 50.2351 76.862Z" fill="#BD8135"/>
<path d="M42.8727 39.0871C39.2987 35.6989 31.7894 35.4705 25.2803 41.7312C18.8914 47.6228 13.5016 60.004 16.9602 73.3172C19.8187 86.772 30.1759 95.4361 38.5253 97.8492C47.1477 100.538 53.762 96.9762 55.4443 92.3476C58.9854 82.4678 48.2788 78.7962 45.4772 66.5859C42.5242 54.4121 50.4574 46.3408 42.8727 39.0871Z" fill="#FFFA89"/>
<path d="M47.3507 91.1758C47.2081 91.1758 47.0623 91.1507 46.9207 91.0973C46.7272 91.0244 42.1278 89.2646 37.1651 85.3909C30.5375 80.2178 26.4713 73.7169 25.4069 66.5925C23.9576 56.8944 28.071 49.5185 31.7763 45.0387C32.2059 44.5204 32.9742 44.4475 33.493 44.8766C34.0119 45.3056 34.0843 46.0739 33.6552 46.5927C30.266 50.6897 26.5021 57.423 27.818 66.2323C28.7992 72.7988 32.4297 78.5832 38.6087 83.4248C43.2846 87.0886 47.7382 88.7991 47.7824 88.8161C48.4116 89.0547 48.7287 89.7583 48.4906 90.3875C48.3063 90.8751 47.8429 91.1758 47.3507 91.1758Z" fill="#FFFEC2"/>
<path d="M44.3122 100C42.5236 100 40.4713 99.7316 38.1747 99.0162C29.4527 96.4901 18.7302 87.4623 15.773 73.5963C12.2196 59.8731 17.773 47.0023 24.4437 40.8433C28.5017 36.9444 32.456 35.8277 35.06 35.5767C38.4539 35.2503 41.607 36.2069 43.7107 38.2018C43.7122 38.2028 43.7132 38.2043 43.7148 38.2054C48.5097 42.7909 47.6819 47.8075 46.8053 53.1182C46.1715 56.9606 45.4525 61.3152 46.6616 66.298C47.8117 71.311 50.4019 74.8845 52.6872 78.0377C55.846 82.3959 58.8293 86.5128 56.5912 92.7581C55.5987 95.4884 53.2061 97.7542 50.0247 98.9792C48.6277 99.5181 46.7068 100 44.3122 100ZM36.4036 37.9529C33.2335 37.9529 29.5045 39.3601 26.125 42.6102C26.1188 42.6159 26.1127 42.6221 26.1065 42.6277C19.9444 48.3105 14.8231 60.2426 18.14 73.0113C18.1446 73.0287 18.1487 73.0467 18.1523 73.0641C20.8939 85.9683 30.8101 94.3506 38.8634 96.678C38.8716 96.6805 38.8798 96.6831 38.888 96.6852C44.929 98.5697 52.3444 97.3061 54.2982 91.9313C56.1006 86.9023 53.8409 83.7846 50.7134 79.4695C48.2916 76.128 45.5469 72.341 44.2891 66.8589C42.9665 61.4086 43.7281 56.7938 44.3999 52.722C45.2672 47.4652 45.8949 43.667 42.0335 39.9718C40.6714 38.6796 38.6817 37.9529 36.4036 37.9529Z" fill="#FFEF45"/>
<path d="M40.8911 45.983C39.217 46.1596 37.5783 45.6053 36.3451 44.4321C35.2042 43.3472 34.5534 41.8219 34.5601 40.2474C34.5668 38.6734 35.2299 37.1532 36.3794 36.0781L41.9498 30.8685C43.2908 29.6137 45.2934 29.3278 46.9326 30.1577C47.979 30.6873 48.757 31.5926 49.1224 32.7073C49.4879 33.822 49.3975 35.0126 48.8674 36.0591L45.4227 42.8637C44.5949 44.4993 43.084 45.6166 41.2775 45.9286C41.1487 45.9512 41.0199 45.9692 40.8911 45.983Z" fill="#5F5C5D"/>
<path d="M27.1471 64.8184H22.8854C22.212 64.8184 21.6665 64.2723 21.6665 63.5995C21.6665 62.9262 22.2126 62.3806 22.8854 62.3806H27.1471C27.8204 62.3806 28.3659 62.9267 28.3659 63.5995C28.3659 64.2723 27.8199 64.8184 27.1471 64.8184Z" fill="#5F5C5D"/>
<path d="M43.1275 64.8184H38.8658C38.1925 64.8184 37.647 64.2723 37.647 63.5995C37.647 62.9262 38.193 62.3806 38.8658 62.3806H43.1275C43.8009 62.3806 44.3464 62.9267 44.3464 63.5995C44.3464 64.2723 43.8004 64.8184 43.1275 64.8184Z" fill="#5F5C5D"/>
<path d="M36.0166 69.1052H29.8976C29.2243 69.1052 28.6787 68.5592 28.6787 67.8864C28.6787 67.213 29.2248 66.6675 29.8976 66.6675H36.0166C36.6899 66.6675 37.2355 67.2135 37.2355 67.8864C37.2355 68.5592 36.6894 69.1052 36.0166 69.1052Z" fill="#5F5C5D"/>
</svg>
