<svg width="106" height="100" viewBox="0 0 106 100" fill="none" xmlns="http://www.w3.org/2000/svg">
<path d="M91.8218 64.6731H20.7462C20.1196 64.6731 19.6118 64.1649 19.6118 63.5387C19.6118 62.912 20.12 62.4043 20.7462 62.4043H91.8222C92.4489 62.4043 92.9566 62.9125 92.9566 63.5387C92.9566 64.1649 92.4484 64.6731 91.8218 64.6731Z" fill="#E2E2E2"/>
<path d="M63.3135 65.1531L57.2838 77.3693L49.5059 69.4151L52.8728 66.928C55.7649 64.7935 59.79 64.2007 63.3135 65.1531Z" fill="#E27FA3"/>
<path d="M82.7766 94.5515C77.4967 100.432 67.4958 100.279 61.3629 94.2263L59.9663 92.8373L58.5582 94.2263C55.4974 97.2488 51.3807 98.8174 47.3059 98.8174C43.3883 98.8174 39.6846 97.3672 37.156 94.5515C33.9386 90.9745 33.5293 86.253 35.3538 82.1405L57.2838 77.3698V77.3736L75.759 73.3528L80.0669 76.5282C82.9519 78.7167 84.7917 81.6666 85.4117 84.7613C86.0933 88.1511 85.3052 91.732 82.7766 94.5515Z" fill="#E27FA3"/>
<path d="M50.0037 74.9429L28.0737 79.7136C29.0113 77.6014 30.5417 75.6507 32.5846 74.1008L42.2258 66.9882L50.0037 74.9429Z" fill="#E27FA3"/>
<path d="M28.0739 80.8484C27.7367 80.8484 27.4124 80.698 27.1946 80.4305C26.9247 80.099 26.8636 79.6443 27.0369 79.2536C28.0739 76.9175 29.7552 74.8235 31.8993 73.1976L41.5525 66.0759C42.0077 65.7397 42.6415 65.7912 43.037 66.1958L50.8149 74.15C51.1034 74.4452 51.209 74.8736 51.0905 75.2691C50.9721 75.6646 50.6482 75.9646 50.2446 76.052L28.3146 80.8226C28.2349 80.8398 28.1541 80.8484 28.0739 80.8484ZM42.1051 68.488L33.2582 75.014C32.1052 75.8886 31.1069 76.9232 30.3054 78.0671L47.759 74.2699L42.1051 68.488Z" fill="#DD528B"/>
<path d="M82.4508 67.9989L63.9756 72.0202L70.0053 59.8002C71.3599 60.1637 72.6376 60.7569 73.7472 61.5756L82.4508 67.9989Z" fill="#E27FA3"/>
<path d="M63.9754 73.1546C63.6305 73.1546 63.2991 72.9974 63.0812 72.7185C62.8133 72.3751 62.765 71.9089 62.958 71.5177L68.9878 59.2972C69.2275 58.8115 69.7768 58.5621 70.2994 58.7035C71.8302 59.1143 73.2168 59.7734 74.4205 60.6614L83.1246 67.0852C83.4833 67.3498 83.6533 67.7997 83.5602 68.2353C83.467 68.6709 83.1274 69.012 82.6923 69.1066L64.2171 73.1278C64.1364 73.146 64.0556 73.1546 63.9754 73.1546ZM70.5927 61.172L66.0345 70.4105L79.76 67.4233L73.073 62.4879C72.3322 61.941 71.5006 61.5001 70.5927 61.172Z" fill="#DD528B"/>
<path d="M57.2837 78.5042C56.9809 78.5042 56.6876 78.3829 56.4727 78.1631L48.6943 70.209C48.465 69.9744 48.3485 69.6516 48.3747 69.3248C48.401 68.9977 48.5677 68.6982 48.8318 68.5033L52.1987 66.0162C55.2834 63.7393 59.6562 62.9894 63.6101 64.0584C63.9378 64.1472 64.2086 64.3774 64.3481 64.6865C64.4875 64.9955 64.4818 65.3513 64.3313 65.6556L58.3016 77.8718C58.1387 78.2018 57.8258 78.432 57.4624 78.4898C57.4027 78.4994 57.3434 78.5042 57.2837 78.5042ZM51.2282 69.5536L56.9756 75.431L61.6475 65.9661C58.7429 65.5462 55.739 66.223 53.5467 67.8413L51.2282 69.5536Z" fill="#DD528B"/>
<path d="M86.5247 84.5383C85.8345 81.0897 83.7845 77.9239 80.741 75.6145L76.4331 72.4391C76.1704 72.2456 75.837 72.1735 75.5184 72.2437L35.1132 81.0319C34.7598 81.1088 34.4641 81.3495 34.3175 81.6805C32.1944 86.4655 32.94 91.561 36.3126 95.3096C38.9621 98.26 42.9695 99.9523 47.307 99.9523C51.7992 99.9523 56.1911 98.1597 59.3555 95.0344L59.9635 94.4345L60.5663 95.034C63.7808 98.2065 68.1494 100 72.6211 100C72.7887 100 72.9568 99.9976 73.1245 99.9924C77.2948 99.8663 81.0223 98.2031 83.6212 95.3091L83.6216 95.3086C86.252 92.3754 87.3105 88.4492 86.5247 84.5383ZM84.2999 84.9844C84.6328 86.6404 84.5755 88.2639 84.1532 89.7799L73.1393 84.1695L76.3185 75.1731L79.3821 77.4314C81.9714 79.3964 83.7181 82.0784 84.2999 84.9844ZM71.0993 83.1311L60.6351 77.8049L74.01 74.8942L71.0993 83.1311ZM56.3678 78.7296L58.2703 89.6987L48.3893 80.4654L56.3678 78.7296ZM47.306 97.683C43.5575 97.683 40.2527 96.3016 37.9992 93.7926C35.364 90.8627 34.6982 86.9102 36.1731 83.123L45.693 81.0519L58.3286 92.8588L57.7606 93.4191C55.0171 96.1287 51.2064 97.683 47.306 97.683ZM81.9317 93.7935C79.7518 96.2214 76.5993 97.6175 73.0557 97.725C69.0201 97.8482 65.0552 96.2768 62.1626 93.4224L61.0225 92.2885L58.789 79.4117L71.223 85.7405L83.2906 91.8877C82.9195 92.5588 82.4662 93.1974 81.9317 93.7935Z" fill="#DD528B"/>
<path d="M39.6843 53.7848C29.7427 59.1 19.2627 81.3046 29.2259 78.4903C39.189 75.6761 42.2063 61.2011 42.2063 61.2011L39.6843 53.7848Z" fill="#CC9543"/>
<path d="M104.508 31.9756C103.799 24.7622 97.3778 19.4891 90.1649 20.1974C88.1607 20.3942 86.307 21.0333 84.6887 22.0067C81.8864 10.0184 71.0568 1.23407 58.4523 1.13616C52.6518 1.09126 46.9091 1.63576 41.2247 2.7692C28.6221 5.28303 19.5512 16.0075 19.0301 28.4678C17.2442 27.8187 15.2892 27.5479 13.2716 27.7461C6.05829 28.4544 0.785122 34.8758 1.49347 42.0887C2.20181 49.3021 8.62323 54.5752 15.8361 53.8669C19.5106 53.5063 22.6793 51.6607 24.8124 48.9854C27.8865 52.7683 32.3692 55.2951 37.3673 55.8248C37.8263 55.8735 38.2843 55.9169 38.7424 55.9585L37.8444 63.5377H83.8543C78.0886 57.7721 70.0141 53.1141 70.0141 53.1141L69.7901 53.0764C70.4048 52.9025 71.0186 52.723 71.6319 52.5352C76.5769 51.0206 80.58 47.6289 82.9272 43.2336C85.5456 45.469 89.0324 46.6803 92.7289 46.3173C99.9422 45.6099 105.216 39.1885 104.508 31.9756Z" fill="#CC9543"/>
<path d="M66.4889 49.8523C58.4769 52.1851 50.313 52.9699 41.9973 52.2071C36.8941 51.739 32.5567 48.5584 30.8644 44.0729C29.9793 41.7262 29.3976 39.3499 29.12 36.9436C28.0329 27.5216 34.9922 18.8744 45.0165 16.9485C49.0826 16.1671 53.1875 15.7769 57.3301 15.7783C67.1819 15.7807 75.4685 22.7012 76.3627 31.8123C76.6053 34.2812 76.5289 36.7812 76.1339 39.3127C75.3625 44.252 71.6226 48.3573 66.4889 49.8523Z" fill="#F5E9C1"/>
<path d="M96.4083 32.8573C96.1508 30.2341 93.8156 28.3169 91.1924 28.5743C88.5692 28.8318 86.652 31.167 86.9094 33.7902C87.1669 36.4134 89.502 38.3306 92.1253 38.0732C94.748 37.8153 96.6657 35.4805 96.4083 32.8573Z" fill="#BD8135"/>
<path d="M18.5181 40.5044C18.2607 37.8812 15.9255 35.9639 13.3023 36.2214C10.6791 36.4788 8.76182 38.814 9.01927 41.4372C9.27672 44.0605 11.6119 45.9777 14.2351 45.7203C16.8583 45.4623 18.7761 43.1271 18.5181 40.5044Z" fill="#BD8135"/>
<path d="M40.231 37.2387C40.359 38.5432 39.3875 39.7062 38.0611 39.8366C36.7347 39.967 35.5554 39.0151 35.4273 37.7107C35.2993 36.4062 36.2709 35.2432 37.5973 35.1128C38.9242 34.9824 40.103 35.9343 40.231 37.2387Z" fill="#5F5C5D"/>
<path d="M70.3702 34.2798C70.4982 35.5842 69.5266 36.7473 68.2002 36.8777C66.8738 37.008 65.6945 36.0561 65.5665 34.7517C65.4385 33.4472 66.41 32.2842 67.7364 32.1538C69.0628 32.0234 70.2417 32.9753 70.3702 34.2798Z" fill="#5F5C5D"/>
<path d="M59.4214 40.6377C59.4768 41.2041 59.2881 41.6608 58.9051 42.0276C58.6271 42.3027 58.2488 42.5258 57.786 42.714C56.737 43.1458 55.2736 43.3851 53.6405 43.5451C51.2948 43.7753 49.251 43.7805 48.1815 43.0846C47.8304 42.8573 47.5859 42.5521 47.4708 42.1537C47.4364 42.0477 47.4159 41.9349 47.4044 41.817C47.3003 40.7552 48.0277 39.7211 49.2581 38.9521C50.2554 38.3345 51.5838 37.885 53.0707 37.7389C55.9733 37.4537 58.5072 38.4109 59.2294 39.9413C59.3316 40.1605 59.3975 40.3969 59.4214 40.6377Z" fill="#5F5C5D"/>
<path d="M58.9052 42.0276C58.6272 42.3027 58.2489 42.5258 57.7861 42.714C56.7372 43.1458 55.2737 43.3851 53.6406 43.5451C51.2949 43.7753 49.2511 43.7805 48.1816 43.0846C48.504 42.6289 48.9683 42.2163 49.5429 41.8552C50.5402 41.2381 51.8686 40.7881 53.3555 40.6424C55.6964 40.4127 57.798 40.9926 58.9052 42.0276Z" fill="#E27FA3"/>
<path d="M51.2082 44.8213C50.3867 44.8213 49.7008 44.7612 49.119 44.6408C46.8297 44.167 46.3549 42.7398 46.2756 41.9311C46.1428 40.5799 46.8469 39.2759 48.2593 38.2595C49.4892 37.3739 51.1581 36.7888 52.9593 36.6121C56.9581 36.2199 60.2949 37.9404 60.5495 40.5302C60.8877 43.9778 55.8863 44.4688 53.7507 44.6785C52.7802 44.7736 51.94 44.8213 51.2082 44.8213ZM54.0779 38.8255C53.787 38.8255 53.4876 38.8393 53.1804 38.8699C51.7924 39.006 50.4818 39.4545 49.5852 40.1008C48.8673 40.6176 48.4842 41.2041 48.5339 41.7095C48.5502 41.8728 48.5831 42.2124 49.579 42.4183C50.4369 42.596 51.7289 42.5969 53.5291 42.4197C55.7549 42.201 58.3872 41.7343 58.2907 40.7513C58.1933 39.7598 56.4322 38.8255 54.0779 38.8255Z" fill="#5F5C5D"/>
<path d="M105.637 31.8643C105.265 28.0742 103.439 24.6557 100.495 22.2389C97.5521 19.822 93.8432 18.6967 90.0536 19.0683C88.4286 19.2278 86.8763 19.6515 85.4214 20.3321C83.818 14.8254 80.494 9.85886 75.9545 6.22686C70.9985 2.26196 64.7858 0.051422 58.4609 0.00222486C52.6083 -0.0398077 46.7357 0.513793 41.0021 1.65727C34.6853 2.91729 28.9087 6.28848 24.735 11.1499C20.9077 15.6087 18.5438 21.1771 17.995 26.9666C16.4222 26.5735 14.8015 26.4555 13.1603 26.6174C5.33608 27.3859 -0.404705 34.3762 0.363344 42.2C1.08554 49.5533 7.30205 55.0663 14.5426 55.0658C15.0059 55.0658 15.4755 55.0433 15.9459 54.997C19.3592 54.6617 22.4596 53.1538 24.8072 50.7111C28.0809 54.2428 32.4504 56.4452 37.2469 56.9539C39.6642 57.2099 42.1064 57.3695 44.5066 57.4263C44.5156 57.4263 44.5247 57.4268 44.5343 57.4268C45.148 57.4268 45.6529 56.9362 45.6677 56.3191C45.683 55.6929 45.1872 55.1728 44.5605 55.158C42.2225 55.1021 39.8419 54.9469 37.4862 54.697C32.8488 54.2056 28.6603 51.9229 25.6922 48.2704C25.4768 48.0053 25.1535 47.8515 24.8119 47.8515C24.8105 47.8515 24.8086 47.8515 24.8067 47.8515C24.4633 47.8529 24.1389 48.01 23.925 48.279C21.8859 50.8358 18.9737 52.4196 15.7248 52.7387C9.14289 53.3859 3.26789 48.5574 2.62164 41.9784C1.97586 35.3993 6.80292 29.5215 13.382 28.8757C15.1831 28.6995 16.9528 28.9206 18.6418 29.5344C18.9818 29.6581 19.3601 29.6122 19.6606 29.4107C19.961 29.2096 20.1478 28.8767 20.1626 28.5156C20.4052 22.716 22.6406 17.0736 26.4565 12.6277C30.301 8.1489 35.6243 5.04327 41.4458 3.88212C47.0276 2.76921 52.7464 2.22995 58.4427 2.27103C64.2609 2.31592 69.9768 4.3502 74.5369 7.99843C79.0673 11.6228 82.2799 16.6896 83.5834 22.2651C83.6661 22.6181 83.9125 22.9109 84.2464 23.0518C84.5803 23.1927 84.9619 23.166 85.2728 22.9787C86.8037 22.0578 88.4864 21.5019 90.2747 21.3261C96.8566 20.6822 102.732 25.5069 103.377 32.0859C104.023 38.665 99.1961 44.5433 92.6176 45.1891C89.3462 45.5086 86.167 44.5099 83.6632 42.372C83.4019 42.1489 83.0533 42.0553 82.7156 42.1198C82.3779 42.1838 82.087 42.3973 81.9255 42.7001C79.6634 46.9373 75.8891 50.0453 71.2989 51.4515C68.7216 52.2405 66.097 52.9135 63.4986 53.4504C62.8848 53.577 62.4903 54.1774 62.6173 54.7911C62.7439 55.4049 63.3448 55.7994 63.9581 55.6724C65.8982 55.2712 67.8518 54.7959 69.791 54.2557C71.096 54.8336 78.0327 58.0453 83.0513 63.0639L84.6557 61.4595C80.7563 57.5595 75.9044 54.7544 72.996 53.2718C77.2781 51.7094 80.8604 48.7986 83.2596 44.9288C86.0481 46.8948 89.4021 47.7841 92.8397 47.4474C100.664 46.6793 106.405 39.6886 105.637 31.8643Z" fill="#BD8135"/>
<path d="M81.9213 60.1923C79.4089 58.1151 76.6438 57.3131 74.5665 59.825C72.4893 62.3374 72.8422 66.0578 75.3542 68.1346C77.8666 70.2118 81.5869 69.8588 83.6637 67.3465C85.741 64.8345 84.4332 62.2696 81.9213 60.1923Z" fill="#CC9543"/>
<path d="M79.1029 70.6235C77.4717 70.6235 75.905 70.0618 74.6316 69.0091C73.183 67.8112 72.2874 66.1213 72.1102 64.2499C71.933 62.3785 72.4947 60.5501 73.6921 59.1019C75.9351 56.3893 79.1979 56.4681 82.6441 59.3178C86.0903 62.1674 86.781 65.3575 84.5384 68.0701C83.3405 69.5188 81.6506 70.4143 79.7792 70.5915C79.5533 70.613 79.3274 70.6235 79.1029 70.6235ZM77.6212 59.3899C76.398 59.3899 75.7412 60.1847 75.4408 60.5477C74.6293 61.5292 74.2486 62.7678 74.3689 64.0354C74.4893 65.3036 75.0959 66.4485 76.0775 67.26C77.059 68.0715 78.2999 68.4522 79.5652 68.3323C80.8329 68.2119 81.9783 67.6053 82.7898 66.6238C84.8728 64.1042 82.1072 61.8182 81.1983 61.0664C79.6646 59.7987 78.4977 59.3899 77.6212 59.3899Z" fill="#BD8135"/>
<path d="M27.671 79.8683C25.8153 79.8683 24.9513 78.8495 24.5725 78.1288C22.9739 75.0876 25.6123 69.2742 26.8203 66.9161C29.2439 62.187 32.7087 57.688 36.0899 54.8819C36.5718 54.4826 38.021 56.2279 37.5391 56.6282C34.3823 59.248 31.1305 63.4814 28.8398 67.9511C26.4344 72.6454 25.972 75.9154 26.5805 77.0736C26.6923 77.2857 27.0329 77.932 28.9176 77.3999C38.1137 74.8044 41.0674 61.1113 41.0956 60.9733C41.2236 60.36 41.824 59.9669 42.4378 60.0939C43.0511 60.2219 43.4446 60.8228 43.3171 61.4361C43.2851 61.5899 42.5089 65.2472 40.4661 69.3038C37.7029 74.7905 33.9224 78.3446 29.5338 79.5836C28.8226 79.7838 28.2059 79.8683 27.671 79.8683Z" fill="#BD8135"/>
</svg>
