<svg width="100" height="100" viewBox="0 0 100 100" fill="none" xmlns="http://www.w3.org/2000/svg">
<path d="M87.1548 30.0956C85.191 29.7807 83.2534 29.9216 81.4636 30.4472C81.7939 18.2754 73.6372 7.15163 61.6027 3.88823C56.0646 2.39246 50.4354 1.46673 44.7129 1.12417C32.8991 0.416386 22.233 7.28666 17.887 17.7493C11.4522 17.5418 5.70932 22.1414 4.66397 28.6691C3.5307 35.746 8.34878 42.4029 15.4248 43.5407C16.5426 43.7201 17.6501 43.7491 18.7267 43.6454C20.8305 46.9033 23.9349 49.4929 27.6918 50.9166C28.3162 51.1532 28.9419 51.3815 29.569 51.6031C21.5981 52.9666 18.7385 57.4389 18.7385 63.6929C18.7385 71.2597 28.758 77.3936 41.1174 77.3936C53.4768 77.3936 65.4624 75.2127 65.4624 67.646C65.4624 65.1946 62.5542 58.3062 59.8686 56.4239C60.3457 56.4121 60.8228 56.3985 61.3013 56.3791C66.4135 56.1724 71.0956 53.934 74.4451 50.3181C76.3868 53.1143 79.42 55.1493 83.0472 55.7302C90.125 56.8644 96.7842 52.0449 97.9188 44.9667C99.0534 37.8843 94.2331 31.2298 87.1548 30.0956Z" fill="#CC9543"/>
<path d="M53.3557 51.1441C45.1043 51.3634 37.0962 50.0634 29.3319 47.2445C24.5669 45.5145 21.216 41.382 20.7239 36.6654C20.4666 34.1977 20.5069 31.778 20.8458 29.4059C22.1726 20.1182 31.0031 13.5937 41.0774 14.2689C45.1641 14.543 49.1892 15.2005 53.1527 16.2427C62.5777 18.7199 68.7674 27.4226 67.3341 36.3641C66.9458 38.787 66.2448 41.16 65.2307 43.4827C63.2524 48.0153 58.6427 51.0036 53.3557 51.1441Z" fill="#F5E9C1"/>
<path d="M89.9491 43.7745C90.3615 41.2003 88.6093 38.7788 86.0351 38.3665C83.4609 37.9541 81.0394 39.7064 80.627 42.2806C80.2147 44.8548 81.9669 47.2763 84.5411 47.6886C87.1153 48.1014 89.5368 46.3487 89.9491 43.7745Z" fill="#BD8135"/>
<path d="M87.3266 29.0307C85.7189 28.7729 84.1144 28.792 82.5402 29.0856C82.4002 23.4052 80.4699 17.8069 77.0343 13.1845C73.2947 8.1544 67.9147 4.48455 61.8855 2.85149C56.3016 1.33896 50.5451 0.396908 44.7755 0.050721C38.4254 -0.329903 32.0622 1.44136 26.8562 5.03872C22.6173 7.96817 19.2619 12.0227 17.1793 16.67C10.4509 16.805 4.67987 21.7735 3.60143 28.4992C2.37528 36.1539 7.60297 43.3785 15.2531 44.6037C15.9962 44.7242 16.7461 44.7845 17.4947 44.7845C17.7226 44.7845 17.9505 44.7786 18.178 44.7673C20.4187 48.0153 23.5693 50.5048 27.3116 51.924C27.8676 52.1351 28.4888 51.8551 28.6995 51.2991C28.9102 50.7436 28.6307 50.1219 28.0747 49.9112C23.7714 48.2795 20.3412 45.0587 18.4086 40.8383C18.3996 40.8142 18.3896 40.7907 18.3787 40.7676C17.5404 38.9551 17.0271 36.8521 16.8517 34.5145C16.5889 31.1065 16.6922 27.7112 17.1594 24.4207C17.3411 23.1265 17.6406 21.7921 18.0507 20.4545C18.0552 20.44 18.0593 20.4259 18.0629 20.4114C19.7599 14.9313 23.3164 10.1024 28.0806 6.80998C32.8923 3.48495 38.7761 1.84736 44.6468 2.1999C50.2701 2.53702 55.8807 3.4555 61.3227 4.92952C66.888 6.43706 71.8542 9.82506 75.3066 14.4691C78.7367 19.0833 80.5406 24.7478 80.3865 30.4196C80.377 30.7635 80.5329 31.0916 80.8057 31.3013C81.0785 31.5116 81.4346 31.5787 81.7649 31.4817C83.4673 30.9828 85.2236 30.8732 86.9858 31.1559C93.4673 32.1949 97.8957 38.313 96.8567 44.7949C96.3533 47.9346 94.6577 50.691 92.0817 52.5551C89.5057 54.4193 86.3583 55.1688 83.2177 54.6663C79.9955 54.1497 77.1938 52.387 75.3279 49.7023C75.1416 49.4345 74.8444 49.2655 74.519 49.2428C74.1937 49.2197 73.876 49.3457 73.6545 49.5849C70.4173 53.0794 66.0143 55.1099 61.2574 55.3024C56.3288 55.5023 51.3997 55.2762 46.6084 54.6305C46.018 54.5507 45.4774 54.9644 45.3981 55.5535C45.3188 56.1425 45.732 56.6845 46.3211 56.7638C50.0829 57.2704 53.9254 57.5255 57.7874 57.5255C58.9719 57.5255 60.1591 57.5015 61.3449 57.4534C66.2495 57.255 70.8175 55.3124 74.3414 51.9534C76.511 54.5475 79.4984 56.2499 82.8778 56.7914C86.5853 57.3855 90.3023 56.5001 93.3441 54.2988C96.3859 52.097 98.3883 48.8427 98.9823 45.1352C100.209 37.482 94.9803 30.2574 87.3266 29.0307ZM16.8812 42.6145C16.4516 42.5923 16.022 42.5479 15.5947 42.4786C9.11506 41.4409 4.68848 35.3224 5.72659 28.84C6.59069 23.4532 11.0073 19.4028 16.3021 18.878C16.1933 19.1902 16.0891 19.5038 15.9917 19.8201C15.9871 19.8355 15.9826 19.8514 15.9785 19.8672C15.5422 21.2982 15.2223 22.7291 15.027 24.1198C14.538 27.5635 14.4297 31.1165 14.7043 34.6776C14.8965 37.2427 15.4647 39.5727 16.3931 41.6045C16.4008 41.6244 16.409 41.6448 16.4181 41.6648C16.5644 41.9869 16.7198 42.3028 16.8812 42.6145Z" fill="#BD8135"/>
<path d="M53.421 37.4589C53.1111 39.0729 53.9099 40.5827 55.2045 40.8315C56.4991 41.0798 57.8 39.9728 58.1095 38.3588C58.4194 36.7447 57.6206 35.2345 56.326 34.9862C55.0314 34.7374 53.7305 35.8448 53.421 37.4589Z" fill="#5F5C5D"/>
<path d="M24.0016 31.8138C23.6916 33.4279 24.4905 34.9377 25.7851 35.1864C27.0796 35.4348 28.3806 34.3278 28.6901 32.7137C29 31.0997 28.2011 29.5899 26.9066 29.3411C25.612 29.0928 24.3115 30.1998 24.0016 31.8138Z" fill="#5F5C5D"/>
<path d="M47.5648 39.5673C46.9472 42.9294 42.6547 45.8299 39.1235 45.1525C38.007 44.9381 36.9481 44.3622 36.0486 43.5697C33.6824 41.4831 32.3942 37.8889 33.9026 35.4076C36.1665 31.6865 38.3016 34.9998 40.9736 35.5127C43.6457 36.0256 46.8552 33.7374 47.5811 38.0321C47.6699 38.5473 47.6581 39.0593 47.5648 39.5673Z" fill="#5F5C5D"/>
<path d="M47.565 39.5672C46.9474 42.9294 42.6549 45.8299 39.1237 45.1525C38.0072 44.9381 36.9483 44.3622 36.0488 43.5697C36.6664 40.2075 40.9589 37.3071 44.4901 37.9845C45.6066 38.1984 46.6655 38.7743 47.565 39.5672Z" fill="#E27FA3"/>
<path d="M40.1762 46.327C39.7489 46.327 39.3289 46.2889 38.921 46.2105C36.4406 45.7347 34.0753 43.7061 32.8945 41.0422C31.9085 38.8178 31.9407 36.5594 32.9833 34.8466C35.0944 31.3788 37.5562 32.716 39.1861 33.6014C39.8468 33.9603 40.5301 34.3314 41.1763 34.4555C41.8224 34.5797 42.5945 34.4877 43.3413 34.3989C45.1828 34.18 47.965 33.8488 48.6424 37.8517C48.9768 39.8287 48.1711 41.9389 46.432 43.6404C44.6925 45.3423 42.3476 46.327 40.1762 46.327ZM39.3266 44.0967C41.1078 44.4383 43.358 43.6368 44.9272 42.1011C46.1552 40.8999 46.7356 39.4821 46.5204 38.2106C46.1846 36.2282 45.5321 36.3057 43.5959 36.5363C42.7282 36.6392 41.7449 36.7565 40.7707 36.5694C39.7965 36.3822 38.926 35.9096 38.1584 35.4927C36.4447 34.5616 35.8674 34.248 34.8221 35.9658C34.1515 37.0674 34.166 38.5998 34.8624 40.1699C35.7519 42.1768 37.5463 43.755 39.3266 44.0967Z" fill="#5F5C5D"/>
<path d="M52.1265 60.3244H8.16931C4.71514 60.3244 1.91528 63.1243 1.91528 66.5785V78.9211C1.91528 81.4781 3.45047 83.6753 5.64858 84.645C6.45831 92.6648 13.2298 98.9243 21.4631 98.9243H38.8327C47.066 98.9243 53.837 92.6648 54.6472 84.6445C56.8453 83.6749 58.3805 81.4781 58.3805 78.9211V66.5785C58.3805 63.1243 55.5806 60.3244 52.1265 60.3244Z" fill="#FFBE8D"/>
<path d="M6.60632 66.5784C6.60632 65.7166 7.30729 65.0156 8.16913 65.0156H52.1267C52.9881 65.0156 53.6891 65.7166 53.6891 66.5784L53.6868 66.5789V73.6159C53.6868 74.4791 52.9877 75.1783 52.1245 75.1783H45.2846H12.2667H8.1714C7.3082 75.1783 6.60449 74.4791 6.60449 73.6159V66.5789L6.60632 66.5784Z" fill="#95E0E8"/>
<path d="M52.1264 59.2478H8.16931C4.12744 59.2478 0.839111 62.5361 0.839111 66.578V78.9206C0.839111 81.6892 2.38201 84.1035 4.65307 85.3505C5.19138 89.2818 7.09133 92.8986 10.0493 95.5884C13.1781 98.4331 17.2322 100 21.464 100H38.8322C43.0644 100 47.1181 98.4335 50.2469 95.5884C53.2053 92.8986 55.1048 89.2818 55.6436 85.3505C57.9142 84.1035 59.4571 81.6892 59.4571 78.9211V66.5784C59.4571 62.5361 56.1683 59.2478 52.1264 59.2478ZM38.8322 97.8472H21.464C14.3776 97.8472 8.41354 92.9222 6.97577 86.1525C7.36456 86.2164 7.76285 86.2513 8.16931 86.2513H52.1264C52.5334 86.2513 52.9317 86.2164 53.3204 86.1525C51.8827 92.9222 45.9186 97.8472 38.8322 97.8472ZM57.3043 78.9211C57.3043 81.7762 54.9816 84.099 52.1264 84.099H8.16931C5.31417 84.099 2.99145 81.7762 2.99145 78.9211V66.5784C2.99145 63.7238 5.31417 61.401 8.16931 61.401H52.1264C54.9816 61.401 57.3043 63.7238 57.3043 66.5784V78.9211Z" fill="#EA9C71"/>
<path d="M54.7654 66.5784H52.6126C52.6126 66.3102 52.3946 66.0922 52.1264 66.0922H8.16878C7.90053 66.0922 7.68258 66.3106 7.68258 66.5784H5.52979C5.52979 65.1235 6.7138 63.9395 8.16878 63.9395H52.1264C53.5818 63.9395 54.7654 65.1235 54.7654 66.5784Z" fill="#EA9C71"/>
<path d="M12.2668 75.1778H45.2851C42.4562 73.0341 39.2894 70.618 36.939 66.5223C31.2903 56.9613 35.9303 48.0665 27.6219 43.8774C23.7186 41.9257 17.2915 43.6757 13.3883 50.6656C10.0384 56.3845 8.55619 65.9876 12.2668 75.1778Z" fill="#FFFA89"/>
<path d="M23.3018 76.2544C22.9779 76.2544 22.658 76.109 22.4459 75.8317C21.4694 74.5548 20.6221 73.1696 19.9274 71.7146C16.191 63.8633 17.7715 56.5485 19.7552 51.7943C19.9841 51.2456 20.6148 50.986 21.1631 51.2152C21.7118 51.4441 21.971 52.0744 21.7417 52.6231C19.927 56.9731 18.4761 63.6553 21.8704 70.7884C22.5003 72.1079 23.2692 73.3649 24.1555 74.5235C24.5167 74.9957 24.4265 75.6713 23.9543 76.0324C23.7595 76.1824 23.5298 76.2544 23.3018 76.2544Z" fill="#FFFEC2"/>
<path d="M30.3504 65.9563C30.7187 66.897 31.7927 67.3555 32.7487 66.9808C33.7053 66.6061 34.1815 65.5403 33.8131 64.5997C33.4447 63.659 32.3708 63.2004 31.4147 63.5751C30.4587 63.9499 29.982 65.0156 30.3504 65.9563Z" fill="#5F5C5D"/>
<path d="M18.3755 70.647C18.7439 71.5877 19.8178 72.0463 20.7739 71.6716C21.73 71.2968 22.2067 70.2311 21.8383 69.2904C21.4699 68.3497 20.396 67.8911 19.4399 68.2659C18.4838 68.6406 18.0071 69.7068 18.3755 70.647Z" fill="#5F5C5D"/>
<path d="M12.2673 76.2549C11.8414 76.2549 11.4381 76.0002 11.2691 75.5811C7.13888 65.3518 9.32476 55.481 12.454 50.1309C14.8878 45.7778 17.9513 43.8089 20.0942 42.9231C22.8872 41.769 25.8062 41.7653 28.1036 42.914C33.358 45.5634 33.953 50.0312 34.5824 54.7614C35.0378 58.1829 35.5539 62.0612 37.8657 65.9749C40.13 69.9207 43.2139 72.2579 45.9354 74.3201C46.4094 74.6789 45.1084 76.3945 44.6349 76.0356C41.8931 73.9576 38.481 71.3716 36.0056 67.0578C33.4776 62.7794 32.9307 58.6705 32.4486 55.0451C31.8251 50.3593 31.3742 46.974 27.1375 44.8375C23.5796 43.0581 17.8136 44.9472 14.3282 51.1894C14.3245 51.1958 14.3209 51.2021 14.3173 51.2085C11.2039 56.5241 9.67094 65.8725 13.2656 74.7741C13.4881 75.3251 13.2216 75.9527 12.6706 76.1752C12.5379 76.2295 12.4015 76.2549 12.2673 76.2549Z" fill="#FFEF45"/>
<path d="M26.1013 71.6634C25.6024 71.6634 25.1048 71.5601 24.634 71.3544C23.7369 70.962 23.0458 70.2442 22.6888 69.3321C22.4717 68.7784 22.745 68.154 23.2982 67.9374C23.852 67.7199 24.4764 67.9936 24.693 68.5468C24.9975 69.3239 25.877 69.7086 26.6545 69.4041C27.0311 69.2569 27.3274 68.9714 27.4892 68.6012C27.651 68.2305 27.6591 67.8196 27.5118 67.443C27.2953 66.8893 27.568 66.2649 28.1213 66.0483C28.6755 65.8312 29.299 66.1045 29.516 66.6577C29.8731 67.5694 29.854 68.5659 29.4616 69.463C29.0692 70.3602 28.351 71.0512 27.4393 71.4083C27.0062 71.5787 26.5535 71.6634 26.1013 71.6634Z" fill="#5F5C5D"/>
<path d="M27.7257 50.2369C26.3518 50.8192 24.8189 50.7725 23.4695 50.0969C22.2216 49.4716 21.2759 48.3465 20.8745 47.0098C20.4734 45.6735 20.6429 44.2131 21.3398 43.0037L24.7174 37.1462C25.5303 35.7356 27.1548 34.9753 28.7593 35.2553C29.7838 35.4338 30.6773 36.0007 31.275 36.8517C31.8731 37.7026 32.1038 38.7358 31.9253 39.7598L30.763 46.4207C30.4839 48.0216 29.4911 49.3597 28.0397 50.091C27.9364 50.1432 27.8317 50.1921 27.7257 50.2369Z" fill="#5F5C5D"/>
<path d="M52.1247 76.2544H8.17114C6.71344 76.2544 5.52808 75.0709 5.52808 73.6159V66.5789C5.52808 65.9844 6.0102 65.5027 6.60425 65.5027C7.19829 65.5027 7.68042 65.9848 7.68042 66.5789V73.6159C7.68042 73.8837 7.90063 74.1017 8.17114 74.1017H52.1247C52.3925 74.1017 52.6104 73.8837 52.6104 73.6159V66.5789C52.6104 65.9844 53.0925 65.5027 53.6866 65.5027C54.2811 65.5027 54.7628 65.9848 54.7628 66.5789V73.6159C54.7632 75.0709 53.5796 76.2544 52.1247 76.2544Z" fill="#EA9C71"/>
<path d="M59.8178 56.3872C69.8119 60.9932 73.8116 71.169 71.2197 75.1783C66.7415 82.1047 46.7256 68.385 49.8527 63.6938C52.9797 59.0026 65.4619 67.6469 65.4619 67.6469L59.8178 56.3872Z" fill="#CC9543"/>
<path d="M67.0479 78.3176C66.9537 78.3176 66.8576 78.3162 66.7602 78.313C60.5211 78.1245 51.5275 71.8991 49.1096 67.2119C48.0652 65.1874 48.4499 63.8565 48.9565 63.0967C49.5845 62.1546 50.5157 61.5597 51.7237 61.3295C56.68 60.382 65.1267 66.1063 66.0737 66.762C66.5622 67.1005 66.6841 67.7706 66.346 68.2596C66.008 68.748 65.3374 68.8704 64.8485 68.5319C62.48 66.8934 55.5784 62.784 52.1265 63.4442C51.4899 63.5656 51.0517 63.8348 50.7477 64.2911C50.411 64.7963 50.7114 65.6215 51.0227 66.225C53.0958 70.2433 61.445 75.9989 66.8254 76.1616C68.5156 76.2133 69.6507 75.7107 70.2955 74.6273C71.0259 73.3998 71.0468 71.4047 70.3521 69.1536C69.1894 65.3845 65.7126 60.3172 59.4413 57.3995C58.9021 57.1489 58.6687 56.5087 58.9193 55.9695C59.1704 55.4302 59.8106 55.1964 60.3494 55.4475C67.26 58.6624 71.1102 64.3079 72.4093 68.5187C73.2956 71.3925 73.2023 73.9526 72.1456 75.728C71.436 76.921 69.9783 78.3176 67.0479 78.3176Z" fill="#BD8135"/>
<path d="M11.6934 44.5045C13.0736 41.5904 15.2151 39.7127 18.1291 41.0929C21.0432 42.4731 22.2861 45.9545 20.9059 48.8685C19.5257 51.7826 16.0443 53.0255 13.1303 51.6453C10.2162 50.2651 10.3127 47.4185 11.6934 44.5045Z" fill="#CC9543"/>
<path d="M15.625 53.2879C14.615 53.2879 13.6091 53.0636 12.6693 52.6186C9.54951 51.1405 8.83902 48.0153 10.7204 44.0441C12.6018 40.0729 15.47 38.6429 18.5898 40.1205C22.0354 41.7527 23.5107 45.8843 21.8786 49.3298C21.0879 50.9991 19.6945 52.2602 17.955 52.8814C17.1951 53.1528 16.4085 53.2879 15.625 53.2879ZM16.2544 41.7187C14.2036 41.7187 13.0825 44.0854 12.6657 44.9653C12.0168 46.3356 11.7408 47.5604 11.8677 48.5069C11.9978 49.4766 12.5614 50.1853 13.5905 50.6729C15.9635 51.7971 18.8087 50.7812 19.9329 48.4082C21.0571 46.0352 20.0412 43.19 17.6681 42.0658C17.1548 41.8229 16.6844 41.7187 16.2544 41.7187Z" fill="#BD8135"/>
<path d="M8.70484 97.2278C7.82397 97.2278 6.9508 96.8436 6.35539 96.1041C5.31094 94.8077 5.51575 92.91 6.81214 91.8655L21.9773 79.6511C23.2737 78.6067 25.1714 78.8115 26.2158 80.1079C27.2603 81.4042 27.0555 83.3019 25.7591 84.3464L10.5939 96.5608C10.0366 97.0098 9.36867 97.2278 8.70484 97.2278Z" fill="white"/>
<path d="M8.70502 98.3044C7.45984 98.3044 6.29757 97.7484 5.51729 96.7796C4.10218 95.0229 4.38041 92.4428 6.13717 91.0277L21.3023 78.8133C23.0591 77.3982 25.6396 77.6764 27.0543 79.4331C28.4694 81.1899 28.1912 83.77 26.4344 85.1851L11.2693 97.3995C10.5447 97.9827 9.63393 98.3044 8.70502 98.3044ZM23.8661 80.0616C23.4393 80.0616 23.0097 80.2016 22.6522 80.4894L7.48703 92.7038C6.65464 93.374 6.52278 94.5969 7.1934 95.4289C7.56315 95.8879 8.11414 96.1516 8.70457 96.1516C9.15044 96.1516 9.57004 96.0034 9.91849 95.723L25.0837 83.5085C25.916 82.8379 26.0479 81.6154 25.3777 80.7834C24.9953 80.3086 24.433 80.0616 23.8661 80.0616Z" fill="#E2E2E2"/>
<path d="M51.5912 97.2278C52.4721 97.2278 53.3453 96.8436 53.9407 96.1041C54.9851 94.8077 54.7803 92.91 53.4839 91.8655L38.3188 79.6511C37.0224 78.6067 35.1247 78.8115 34.0802 80.1079C33.0358 81.4042 33.2406 83.3019 34.537 84.3464L49.7022 96.5608C50.259 97.0098 50.9274 97.2278 51.5912 97.2278Z" fill="white"/>
<path d="M51.5909 98.3044C50.662 98.3044 49.7512 97.9832 49.0267 97.3995L33.8615 85.1851C32.1048 83.7705 31.8265 81.1899 33.2417 79.4332C34.6568 77.6769 37.2369 77.3986 38.9936 78.8133L54.1588 91.0277C55.9156 92.4424 56.1938 95.0229 54.7787 96.7797C53.9984 97.7484 52.8366 98.3044 51.5909 98.3044ZM36.4298 80.0616C35.863 80.0616 35.3011 80.3081 34.9182 80.783C34.5933 81.1863 34.4452 81.6915 34.5009 82.2063C34.5562 82.721 34.809 83.1832 35.2123 83.5081L50.3775 95.7225C50.7255 96.003 51.1455 96.1512 51.5914 96.1512C52.1818 96.1512 52.7328 95.8879 53.103 95.4284C53.7732 94.5961 53.6418 93.3735 52.8094 92.7034L37.6442 80.4889C37.2862 80.2017 36.8567 80.0616 36.4298 80.0616Z" fill="#E2E2E2"/>
</svg>
