<svg width="106" height="100" viewBox="0 0 106 100" fill="none" xmlns="http://www.w3.org/2000/svg">
<path d="M104.671 37.0507C103.533 29.9592 96.861 25.133 89.7695 26.2713C87.7991 26.5877 86.0044 27.3324 84.4627 28.3935C80.963 16.7058 69.7185 8.67471 57.2453 9.34353C51.5054 9.65129 45.8581 10.5381 40.3045 12.0049C27.9917 15.2563 19.6711 26.4149 19.9121 38.7709C18.1064 38.237 16.1561 38.0882 14.1727 38.407C7.08121 39.5454 2.25499 46.2172 3.39337 53.3087C4.53175 60.4001 11.2036 65.2264 18.295 64.088C21.9075 63.508 24.9294 61.4905 26.8773 58.7149C28.7219 60.7204 30.9857 62.3024 33.5021 63.3409C32.9888 64.8274 32.7099 66.4099 32.7099 68.0529C32.7099 76.6318 40.2594 83.5869 49.5719 83.5869C58.8844 83.5869 66.4339 76.6323 66.4339 68.0529C66.4339 65.9154 65.9649 63.8787 65.117 62.0249C67.9022 61.2898 70.6643 60.4102 73.403 59.3837C78.2023 57.5852 81.9559 53.9876 84.0104 49.4979C86.7361 51.55 90.2583 52.5362 93.8928 51.9528C100.983 50.8139 105.81 44.1426 104.671 37.0507Z" fill="#CC9543"/>
<path d="M43.5535 65.9432C42.2581 65.9432 40.9608 65.9144 39.6601 65.8568C34.8872 65.6451 30.4331 63.7346 26.979 60.4448C24.8036 62.9991 21.8297 64.6762 18.4755 65.2144C10.7748 66.4497 3.50326 61.1909 2.26742 53.4902C1.03157 45.789 6.29088 38.5179 13.9921 37.2816C15.6015 37.0233 17.207 37.0396 18.7828 37.3306C18.9777 31.5734 20.9789 25.9261 24.4915 21.2862C28.3263 16.2213 33.8391 12.5335 40.0135 10.9035C45.6161 9.4242 51.3934 8.51628 57.1842 8.20612C63.448 7.87147 69.7299 9.68058 74.8755 13.3036C79.5836 16.6189 83.172 21.3256 85.0949 26.6708C86.4892 25.9137 87.9954 25.4023 89.5884 25.1469C93.3195 24.5477 97.0597 25.4378 100.121 27.6522C103.182 29.8665 105.198 33.1405 105.797 36.8711C106.396 40.6017 105.506 44.3423 103.292 47.4036C101.077 50.4649 97.8034 52.4805 94.0728 53.0797C90.6951 53.6227 87.3256 52.9476 84.4477 51.1769C82.1374 55.4616 78.4006 58.7298 73.8024 60.453C64.0645 64.1005 53.9059 65.9432 43.5535 65.9432ZM26.8772 57.5741C27.1951 57.5741 27.5 57.7071 27.7165 57.9424C30.8709 61.3715 35.1489 63.3731 39.761 63.5781C51.1515 64.0822 62.3355 62.313 73.002 58.3154C77.4528 56.6475 80.9942 53.3471 82.9728 49.0231C83.1163 48.7086 83.3948 48.4767 83.7299 48.3922C84.0646 48.3077 84.4199 48.3788 84.696 48.5866C87.2987 50.5465 90.5007 51.3411 93.7118 50.8264C96.8408 50.3242 99.5871 48.6337 101.444 46.0655C103.302 43.4978 104.048 40.3606 103.546 37.2317C103.044 34.1027 101.352 31.3564 98.7848 29.4992C96.2171 27.6416 93.0794 26.895 89.9505 27.3977C88.1946 27.6796 86.5656 28.3306 85.1098 29.3331C84.8098 29.54 84.4285 29.5905 84.0848 29.4695C83.741 29.3485 83.4755 29.07 83.3708 28.7205C81.7441 23.2888 78.2613 18.4751 73.5633 15.167C68.834 11.8373 63.061 10.1722 57.3067 10.4819C51.671 10.7839 46.0487 11.6673 40.5959 13.1068C34.9117 14.6076 29.8382 18.0012 26.3097 22.6613C22.8072 27.2873 20.94 33.0008 21.0524 38.7479C21.0596 39.1114 20.893 39.4566 20.6039 39.6769C20.3149 39.8973 19.938 39.9669 19.5894 39.8637C17.884 39.3596 16.1224 39.2477 14.3541 39.532C7.89498 40.569 3.48311 46.6676 4.52018 53.1267C5.55677 59.5863 11.6553 63.9968 18.1154 62.9607C21.3054 62.4489 24.0858 60.7074 25.9448 58.0586C26.1431 57.7758 26.4586 57.5986 26.8033 57.5756C26.8268 57.5751 26.8523 57.5741 26.8772 57.5741Z" fill="#BD8135"/>
<path d="M67.0792 50.3588C59.2964 53.1526 51.2692 54.4245 42.9975 54.1748C37.9216 54.0217 33.4382 51.139 31.4918 46.8049C30.4739 44.5377 29.7542 42.2221 29.3336 39.8589C27.6863 30.6054 34.0451 21.6304 43.8426 19.1165C47.8171 18.0967 51.8535 17.4615 55.9513 17.2114C65.696 16.616 74.3123 22.9575 75.7503 31.9152C76.1397 34.3427 76.216 36.8202 75.9793 39.3481C75.516 44.2809 72.0658 48.5689 67.0792 50.3588Z" fill="#F5E9C1"/>
<path d="M96.7134 38.4152C96.2995 35.8364 93.8734 34.0816 91.2947 34.4954C88.7159 34.9093 86.961 37.3354 87.3749 39.9141C87.7888 42.4929 90.2148 44.2478 92.7936 43.8339C95.3724 43.42 97.1277 40.9939 96.7134 38.4152Z" fill="#BD8135"/>
<path d="M40.4763 40.3155C40.713 41.7895 39.8474 43.154 38.5434 43.3634C37.2393 43.5727 35.9905 42.5476 35.7538 41.0732C35.5171 39.5992 36.3828 38.2346 37.6868 38.0248C38.9904 37.8165 40.2396 38.8415 40.4763 40.3155Z" fill="#5F5C5D"/>
<path d="M70.1067 35.5589C70.3434 37.0329 69.4782 38.3974 68.1737 38.6067C66.8692 38.8161 65.6209 37.791 65.3842 36.3165C65.1475 34.8425 66.0127 33.478 67.3172 33.2687C68.6212 33.0598 69.87 34.0849 70.1067 35.5589Z" fill="#5F5C5D"/>
<path d="M80.3742 14.3585C79.5311 13.2249 78.1844 12.5796 76.7713 12.5781C74.9786 12.5762 72.045 12.6401 68.1209 12.9454C66.1423 4.65607 56.4231 -0.411668 46.0538 1.56981C35.638 3.56042 28.4563 11.9213 29.755 20.3951C26.4863 21.4322 24.0655 22.3362 22.5454 22.9412C21.2328 23.464 20.2187 24.5597 19.8533 25.9247C18.5719 30.7096 19.8361 35.8451 19.8361 35.8451C22.7634 34.7297 25.6922 33.7191 28.5993 32.7977C33.6872 35.3068 42.583 35.9622 52.2964 34.1113C62.1227 32.2388 70.2277 28.2903 73.9737 24.0311C77.274 23.7819 80.6397 23.6196 84.0486 23.573C84.0486 23.573 83.3299 18.3334 80.3742 14.3585Z" fill="#E27FA3"/>
<path d="M85.1786 23.4184C85.1479 23.1923 84.3845 17.8403 81.2896 13.6781C80.2482 12.2776 78.5601 11.4398 76.7731 11.4378C76.7428 11.4378 76.7126 11.4378 76.6814 11.4378C74.8766 11.4378 72.282 11.4998 68.9701 11.7346C67.7457 7.80809 64.8655 4.5149 60.7618 2.39322C56.3951 0.134712 51.0959 -0.55475 45.8404 0.450634C40.5591 1.45842 35.8721 4.07079 32.6432 7.80569C29.605 11.3207 28.1564 15.4723 28.5045 19.5961C25.763 20.4887 23.6284 21.2833 22.1232 21.882C20.4634 22.5432 19.2026 23.9442 18.7513 25.6304C17.4093 30.6405 18.6735 35.8969 18.7282 36.1182C18.8065 36.4356 19.0168 36.704 19.3063 36.8557C19.4714 36.9421 19.6534 36.9858 19.8359 36.9858C19.9732 36.9858 20.1105 36.9613 20.2416 36.9109C22.924 35.8887 25.6867 34.9266 28.517 34.0211C31.8116 35.5272 36.3873 36.3031 41.5332 36.3031C45.0065 36.3031 48.739 35.9502 52.5065 35.2324C61.9861 33.431 70.3475 29.5823 74.5069 25.1339C77.7463 24.8977 80.9353 24.7565 84.0638 24.7138C84.3903 24.7095 84.6995 24.565 84.9126 24.3172C85.1268 24.069 85.2233 23.742 85.1786 23.4184ZM34.3693 9.29696C37.2635 5.94904 41.4891 3.60266 46.2687 2.69042C51.0248 1.7801 55.7997 2.39418 59.7147 4.41888C63.0899 6.16462 65.5026 8.79667 66.629 11.9204C61.9031 12.3342 55.986 13.0828 49.0194 14.4141C41.54 15.844 35.4323 17.4514 30.7467 18.8875C30.6113 15.5492 31.8697 12.1883 34.3693 9.29696ZM52.0811 32.9917C44.5729 34.4224 37.2856 34.3605 32.1271 32.9096C38.3452 31.0683 44.8768 29.5021 51.6649 28.2327C58.1687 26.9632 64.5572 26.0342 70.7739 25.4474C66.5305 28.7541 59.7132 31.5407 52.0811 32.9917ZM51.2366 25.9924C40.3401 28.0305 30.0765 30.8234 20.7059 34.3C20.437 32.5528 20.1355 29.2812 20.955 26.22C21.221 25.2261 21.9734 24.3964 22.9672 24.0008C26.2888 22.6786 35.5182 19.3162 49.4472 16.6544C63.2791 14.0108 73.055 13.7184 76.6919 13.7184C76.7183 13.7184 76.7443 13.7184 76.7697 13.7184C77.8394 13.7199 78.8448 14.2134 79.4589 15.0393C81.3496 17.5825 82.2763 20.7355 82.6705 22.4577C72.6786 22.6814 62.1086 23.8702 51.2366 25.9924Z" fill="#DD528B"/>
<path d="M59.5506 41.3511C59.6379 41.9273 59.6389 42.4938 59.565 43.0436C59.4742 43.7244 59.2735 44.3707 58.9691 44.967C58.4976 45.9138 57.7803 46.7238 56.8892 47.31C56.1786 47.7762 55.3552 48.1036 54.4531 48.2342C52.4817 48.5266 50.5905 47.8357 49.2715 46.5288C48.5854 45.8442 48.0573 44.9862 47.763 44.0101C47.6751 43.7292 47.6089 43.4354 47.5652 43.1329C47.449 42.3517 47.5066 41.7002 47.6991 41.1505C48.0856 40.0889 48.9969 39.4191 50.2049 38.9683C51.0134 38.6668 51.9617 38.4675 52.9805 38.3182C55.5093 37.9408 57.7242 37.9807 58.8486 39.4993C59.1996 39.965 59.4358 40.5748 59.5506 41.3511Z" fill="#5F5C5D"/>
<path d="M58.9696 44.9665C58.4981 45.9133 57.7808 46.7233 56.8897 47.3095C56.1791 47.7757 55.3557 48.1032 54.4535 48.2337C52.4821 48.5261 50.5909 47.8352 49.272 46.5283C49.7435 45.5815 50.4608 44.7716 51.3519 44.1858C52.0625 43.7196 52.8859 43.3922 53.7885 43.2616C55.7594 42.9687 57.6507 43.6601 58.9696 44.9665Z" fill="#E27FA3"/>
<path d="M53.557 49.4417C50.0502 49.4417 46.9692 46.8687 46.4391 43.298C45.6882 38.2399 50.863 37.4717 52.8104 37.1827C54.7587 36.8936 59.9331 36.1254 60.6835 41.1836C60.9658 43.0858 60.4905 44.9843 59.3449 46.5293C58.1993 48.0743 56.5208 49.0802 54.6186 49.363C54.2623 49.4158 53.9075 49.4417 53.557 49.4417ZM55.3104 39.252C54.7102 39.252 53.9963 39.312 53.1455 39.4383C49.0755 40.0423 48.4316 41.1884 48.6952 42.9629C49.0937 45.6463 51.6005 47.5054 54.2839 47.1069C55.5836 46.9139 56.7306 46.2263 57.5132 45.171C58.2958 44.1152 58.6209 42.8184 58.4279 41.5182C58.2195 40.1148 57.5819 39.252 55.3104 39.252Z" fill="#5F5C5D"/>
<path d="M75.4219 90.5535L59.2225 86.5512C55.0555 85.5218 52.5122 81.3092 53.5416 77.1422L59.4237 53.3346C60.4531 49.1676 64.6657 46.6244 68.8327 47.6538L85.0322 51.6561C89.1992 52.6855 91.7424 56.8981 90.713 61.0651L84.831 84.8727C83.8016 89.0397 79.589 91.5829 75.4219 90.5535Z" fill="#95A1B3"/>
<path d="M86.1526 59.9359L80.2701 83.7439C79.8629 85.3912 78.1959 86.3976 76.5486 85.9909L60.3511 81.989C58.7038 81.5819 57.6974 79.9149 58.1046 78.2676L63.9871 54.4596C64.3928 52.8171 66.0603 51.8102 67.7071 52.2174L83.9046 56.2192C85.5519 56.6264 86.5583 58.2934 86.1526 59.9359Z" fill="#767576"/>
<path d="M86.1526 59.9359L84.4433 66.8531L62.2778 61.3767L63.9866 54.46C64.3923 52.8175 66.0598 51.8107 67.7066 52.2179L83.9042 56.2197C85.5519 56.6264 86.5583 58.2934 86.1526 59.9359Z" fill="#E6FCFC"/>
<path d="M77.2859 91.9219C76.5801 91.9219 75.8637 91.8374 75.1488 91.6607L58.9494 87.6584C54.1788 86.4796 51.2563 81.6395 52.435 76.8685L58.317 53.0609C59.4958 48.2904 64.3359 45.3688 69.1069 46.5466L85.3064 50.5489C90.0769 51.7276 92.9994 56.5683 91.8207 61.3388L85.9382 85.1463C84.9362 89.2015 81.2877 91.9214 77.2859 91.9219ZM66.9694 48.566C63.9912 48.566 61.277 50.5897 60.5309 53.6078L54.6489 77.4153C53.7717 80.9649 55.9467 84.5668 59.4962 85.444L75.6957 89.4463C79.2457 90.3245 82.8472 88.1495 83.7244 84.599L89.6064 60.7914C90.4836 57.2419 88.3091 53.64 84.759 52.7628L68.5596 48.7604C68.0276 48.6289 67.4942 48.566 66.9694 48.566Z" fill="#70838E"/>
<path d="M84.1788 55.1111L67.9789 51.1087C66.8876 50.8394 65.7559 51.0113 64.7923 51.5932C63.8282 52.1756 63.1488 53.0969 62.8795 54.1878L56.9974 77.9953C56.4405 80.25 57.8213 82.5378 60.0765 83.0952L76.2764 87.0976C76.6135 87.1806 76.9539 87.2219 77.2924 87.2219C78.0505 87.2219 78.7971 87.0155 79.4635 86.6131C80.4276 86.0312 81.107 85.1094 81.3763 84.0185L87.2584 60.211C87.8148 57.9563 86.4335 55.6685 84.1788 55.1111ZM72.5439 72.1714L81.4119 74.3627L80.3479 78.6689L71.48 76.4777L72.5439 72.1714ZM69.2661 75.9308L60.3982 73.7395L61.4621 69.4332L70.3301 71.6245L69.2661 75.9308ZM73.0913 69.9571L74.1941 65.4933L83.0621 67.6841L81.9592 72.1479L73.0913 69.9571ZM70.8774 69.4102L62.0095 67.2189L63.1123 62.7552L71.9803 64.946L70.8774 69.4102ZM59.2113 78.5427L59.8508 75.9538L68.7188 78.1451L67.6159 82.6089L60.6229 80.8809C59.5892 80.6255 58.9559 79.5764 59.2113 78.5427ZM79.1615 83.4717C79.0381 83.9715 78.7265 84.3935 78.2838 84.6609C77.8412 84.9279 77.3226 85.0071 76.8228 84.8837L69.8298 83.1562L70.9326 78.6925L79.8006 80.8838L79.1615 83.4717ZM85.0435 59.6641L83.6089 65.4703L63.6587 60.5413L65.0933 54.7356C65.2167 54.2358 65.5283 53.8133 65.971 53.5463C66.4137 53.2789 66.9322 53.1997 67.432 53.3236L83.632 57.3259C84.6657 57.5809 85.299 58.6299 85.0435 59.6641Z" fill="#5F5C5D"/>
<path d="M80.8063 63.1921C80.7155 63.1921 80.6238 63.1815 80.5317 63.1585C79.9205 63.0072 79.5469 62.3893 79.6982 61.7776L80.3593 59.1024C80.5105 58.4907 81.1285 58.1181 81.7397 58.2689C82.3509 58.4201 82.7244 59.038 82.5732 59.6497L81.912 62.325C81.7838 62.8445 81.3181 63.1921 80.8063 63.1921Z" fill="#63D3D6"/>
<path d="M77.1979 62.3005C77.1071 62.3005 77.0154 62.2899 76.9233 62.2669C76.3121 62.1157 75.9385 61.4977 76.0898 60.886L76.7509 58.2108C76.9021 57.5991 77.52 57.2265 78.1312 57.3773C78.7424 57.5285 79.116 58.1464 78.9647 58.7581L78.3036 61.4334C78.1754 61.9534 77.7097 62.3005 77.1979 62.3005Z" fill="#63D3D6"/>
<path d="M73.4025 61.3628C73.3117 61.3628 73.22 61.3523 73.1278 61.3292C72.5166 61.178 72.1431 60.56 72.2943 59.9484L72.9555 57.2731C73.1067 56.6614 73.7251 56.2888 74.3358 56.4396C74.947 56.5908 75.3201 57.2088 75.1693 57.8204L74.5082 60.4957C74.38 61.0152 73.9143 61.3628 73.4025 61.3628Z" fill="#63D3D6"/>
<path d="M39.3434 71.0078C43.0101 66.0095 43.7882 60.3477 41.0812 58.3619C38.3742 56.3761 33.2073 58.8182 29.5406 63.8165C25.8738 68.8148 25.0958 74.4765 27.8028 76.4624C30.5097 78.4482 35.6766 76.0061 39.3434 71.0078Z" fill="#CC9543"/>
<path d="M30.0682 78.2916C28.9711 78.2916 27.9686 77.9997 27.1308 77.3851C25.4686 76.1656 24.7667 73.9397 25.1546 71.1171C25.5085 68.5441 26.7404 65.7127 28.624 63.1455C30.5075 60.5778 32.8385 58.5526 35.1863 57.4426C37.7622 56.2255 40.0966 56.2264 41.7588 57.4464C43.421 58.6659 44.1229 60.8918 43.735 63.7145C43.3812 66.2875 42.1491 69.1188 40.2656 71.6865C37.2168 75.8415 33.2462 78.2916 30.0682 78.2916ZM38.8022 58.8186C38.0287 58.8186 37.1266 59.0486 36.161 59.5047C34.1498 60.4554 32.126 62.2275 30.4629 64.4947C28.7997 66.7618 27.717 69.2244 27.4141 71.4282C27.149 73.3544 27.5379 74.8553 28.48 75.5467C30.8263 77.2689 35.6055 74.1831 38.4267 70.3373C40.0899 68.0702 41.1726 65.6076 41.4755 63.4038C41.7406 61.4776 41.3517 59.9767 40.4097 59.2853C39.9852 58.9732 39.4369 58.8186 38.8022 58.8186Z" fill="#BD8135"/>
<path d="M43.6176 72.7725L34.5955 59.7208C33.1403 57.6154 33.6669 54.7294 35.7723 53.2741C37.8777 51.8189 40.7637 52.346 42.219 54.4509L51.241 67.5027C51.5425 67.9386 51.6726 68.4706 51.6064 68.9968L51.1426 72.6851C50.9822 73.9599 49.7497 74.8116 48.5005 74.5115L44.8861 73.642C44.3704 73.5182 43.9191 73.2085 43.6176 72.7725Z" fill="#95A1B3"/>
<path d="M52.1788 66.8545L52.1778 66.8531L43.1568 53.8027C41.3462 51.1832 37.7429 50.5259 35.1233 52.336C32.5042 54.146 31.8464 57.7499 33.6565 60.3689L42.6785 73.4207C43.14 74.0881 43.8289 74.5605 44.6187 74.7506L48.2331 75.6197C48.4876 75.6807 48.7454 75.7109 49.0028 75.7109C49.6668 75.7109 50.3226 75.5107 50.8777 75.1266C51.6478 74.5941 52.1567 73.7563 52.2734 72.8273L52.7372 69.1385C52.839 68.3338 52.6407 67.5219 52.1788 66.8545ZM36.4206 54.2123C38.005 53.1171 40.1857 53.5151 41.2809 55.0996L47.6891 64.3698C46.4331 64.3108 45.1978 64.6608 44.1458 65.3877C43.0665 66.1338 42.3213 67.1848 41.9435 68.3458L35.5333 59.0726C34.4377 57.4877 34.8357 55.3075 36.4206 54.2123ZM50.4748 68.8547L50.011 72.5435C49.9746 72.8335 49.8219 73.0851 49.5813 73.2512C49.3408 73.4178 49.0517 73.4721 48.767 73.4029L45.1526 72.5339C44.9092 72.4753 44.697 72.3299 44.5549 72.1244L44.5534 72.1224C43.4597 70.538 43.8582 68.3587 45.4422 67.264C46.2099 66.733 47.138 66.5333 48.056 66.7008C48.974 66.8684 49.7719 67.3836 50.3025 68.1513C50.4451 68.3568 50.5061 68.6065 50.4748 68.8547Z" fill="#70838E"/>
<path d="M33.0322 62.3312C32.168 65.4439 32.5593 68.2699 35.672 69.1341C38.7846 69.9984 42.0082 68.1758 42.8724 65.0631C43.7367 61.9505 41.9141 58.7269 38.8014 57.8627C35.6893 56.9985 33.8965 59.2186 33.0322 62.3312Z" fill="#CC9543"/>
<path d="M37.2476 70.491C36.6196 70.491 35.9882 70.4055 35.367 70.2331C33.5386 69.7256 32.2961 68.5791 31.7732 66.9183C31.3507 65.5764 31.405 63.9305 31.9336 62.0263C33.1219 57.747 35.7362 55.8289 39.1067 56.7646C42.82 57.7959 45.0021 61.6557 43.9713 65.369C43.472 67.1675 42.3019 68.6646 40.6767 69.583C39.6127 70.1842 38.4369 70.491 37.2476 70.491ZM37.5467 58.8234C35.1893 58.8234 34.4082 61.6374 34.1306 62.6361C33.7273 64.088 33.6644 65.332 33.9482 66.2332C34.2396 67.1594 34.884 67.7317 35.9767 68.0351C37.1886 68.3717 38.459 68.2161 39.5537 67.5972C40.6483 66.9784 41.4367 65.9701 41.7733 64.7583C42.468 62.2568 40.9979 59.6564 38.4959 58.9617C38.1546 58.8666 37.8387 58.8234 37.5467 58.8234Z" fill="#BD8135"/>
<path d="M84.176 46.1702C81.5713 44.2593 78.7894 43.6245 76.879 46.2287C74.9681 48.8334 75.5308 52.4934 78.135 54.4043C80.7397 56.3152 84.3997 55.7525 86.3106 53.1483C88.2215 50.5436 86.7807 48.0811 84.176 46.1702Z" fill="#CC9543"/>
<path d="M81.5802 56.6792C80.1047 56.6792 78.6725 56.213 77.4607 55.3238C74.3533 53.0441 73.6802 48.6616 75.9598 45.5542C78.0287 42.7339 81.2695 42.623 84.8508 45.2507C86.4443 46.4198 87.5049 47.6797 88.0033 48.9952C88.6198 50.6238 88.3528 52.2932 87.2303 53.8229C86.126 55.3281 84.5017 56.3133 82.6566 56.5966C82.297 56.6518 81.9374 56.6792 81.5802 56.6792ZM80.0438 45.6353C78.7292 45.6353 78.0858 46.512 77.7987 46.9033C76.2628 48.9967 76.7165 51.949 78.8098 53.4849C79.8239 54.2286 81.0669 54.5335 82.31 54.3424C83.553 54.1513 84.6472 53.4878 85.3914 52.4738C86.0621 51.5596 86.2144 50.7112 85.8706 49.8028C85.5359 48.9189 84.7168 47.9807 83.5016 47.0896C82.0147 45.9988 80.8902 45.6353 80.0438 45.6353Z" fill="#BD8135"/>
<path d="M27.083 44.4652C23.9463 41.2585 17.1194 40.7928 10.9791 46.2676C4.96115 51.4112 -0.369699 62.4954 2.32141 74.7314C4.46133 87.0764 13.5909 95.3178 21.1078 97.801C28.8637 100.544 35.006 97.5297 36.6965 93.3747C40.2591 84.5039 30.6402 80.794 28.5094 69.584C26.2389 58.4023 33.7375 51.3282 27.083 44.4652Z" fill="#FFFA89"/>
<path d="M29.4116 92.0616C29.2642 92.0616 29.1139 92.0328 28.9694 91.9718C28.7956 91.8988 24.6655 90.1377 20.2777 86.4384C14.4168 81.4969 10.9358 75.4339 10.2109 68.9046C9.22371 60.0161 13.2256 53.4359 16.7564 49.4816C17.176 49.012 17.8967 48.9712 18.3663 49.3904C18.8363 49.81 18.8766 50.5307 18.4575 51.0002C15.2359 54.6084 11.5831 60.5999 12.4775 68.6521C13.1439 74.6541 16.246 80.0373 21.6969 84.6508C25.8236 88.1438 29.8154 89.853 29.8552 89.8698C30.4347 90.1152 30.7065 90.784 30.4616 91.364C30.2787 91.7995 29.8562 92.0616 29.4116 92.0616Z" fill="#FFFEC2"/>
<path d="M26.9053 100C25.1355 100 23.0686 99.7033 20.7385 98.8803C12.8789 96.2785 3.4199 87.6843 1.2022 74.9518C-1.56333 62.3264 3.9394 50.7914 10.229 45.4087C14.0624 41.994 17.7075 41.1116 20.0908 40.9723C23.2001 40.7913 26.0454 41.7732 27.8982 43.6678C27.8996 43.6692 27.9006 43.6702 27.9015 43.6716C32.1194 48.0215 31.1918 52.5664 30.21 57.3782C29.5013 60.851 28.6985 64.7866 29.6261 69.3579C30.5 73.9546 32.733 77.2934 34.703 80.2399C37.433 84.322 40.0118 88.1779 37.7537 93.8001C36.7536 96.2593 34.4913 98.2456 31.5452 99.2539C30.3747 99.6553 28.8123 100 26.9053 100ZM20.86 43.2332C18.0609 43.2332 14.7835 44.4038 11.7381 47.1189C11.7323 47.1242 11.7261 47.1295 11.7203 47.1343C5.92279 52.0897 0.857468 62.7624 3.43527 74.4866C3.43911 74.5034 3.44247 74.5202 3.44535 74.537C5.49548 86.3644 14.2237 94.3263 21.4654 96.7183C21.4731 96.7212 21.4803 96.7236 21.488 96.726C26.9082 98.6436 33.6842 97.754 35.6397 92.945C37.4469 88.4443 35.501 85.5343 32.8079 81.507C30.717 78.3799 28.3466 74.8356 27.3888 69.7972C26.3714 64.7851 27.2236 60.6076 27.9755 56.9216C28.9439 52.1756 29.6439 48.7461 26.2667 45.2613C25.0049 43.9722 23.083 43.2332 20.86 43.2332Z" fill="#FFEF45"/>
<path d="M25.0423 50.6737C23.5126 50.777 22.0401 50.2162 20.9574 49.1061C19.9563 48.0791 19.4162 46.669 19.4762 45.2363C19.5362 43.8041 20.1921 42.4429 21.2752 41.5038L26.5244 36.9537C27.7881 35.858 29.6208 35.666 31.0842 36.4779C32.0185 36.9959 32.6955 37.8467 32.9898 38.8742C33.2841 39.9012 33.1608 40.9819 32.6427 41.9162L29.2737 47.9918C28.4642 49.4523 27.0502 50.4169 25.3952 50.6392C25.278 50.6541 25.1599 50.6661 25.0423 50.6737Z" fill="#5F5C5D"/>
<path d="M18.1257 71.6596C16.5749 71.6596 15.5518 71.3192 15.4797 71.2947C14.8839 71.0906 14.5665 70.442 14.7711 69.8461C14.9746 69.2522 15.619 68.9353 16.2134 69.1351C16.259 69.15 18.5381 69.8663 21.3094 68.7601C21.8937 68.5272 22.5578 68.8115 22.7911 69.3963C23.0244 69.9811 22.7397 70.6446 22.1549 70.8784C20.643 71.4815 19.2463 71.6596 18.1257 71.6596Z" fill="#5F5C5D"/>
<path d="M27.8109 86.543C27.8109 86.543 27.3 88.9811 24.704 90.821C21.5846 91.4504 19.4596 90.1512 19.4596 90.1512C18.1651 85.6073 19.0394 82.1321 19.1071 81.8791C19.0471 81.9026 18.9881 81.9228 18.9271 81.9439C17.9942 82.2666 16.96 81.8546 16.4957 80.9851C16.1284 80.298 15.8216 79.5875 15.5739 78.8514C15.258 77.9157 15.667 76.88 16.5409 76.422C17.5957 75.8698 18.688 75.3979 19.8148 75.007C20.7477 74.6844 21.7795 75.0973 22.2448 75.9687C22.6111 76.6539 22.9179 77.3645 23.1666 78.1024C23.4816 79.0358 23.0749 80.0705 22.2006 80.529C22.1435 80.5587 22.0858 80.589 22.0278 80.6168C22.2592 80.7412 25.3891 82.486 27.8109 86.543Z" fill="#9AE2CE"/>
<path d="M31.3231 71.2289C30.9155 70.7488 30.1962 70.6898 29.7156 71.0974C27.5743 72.9151 25.4142 74.3872 23.279 75.4862C23.2694 75.468 23.2608 75.4497 23.2512 75.4315C22.5142 74.053 20.9116 73.4226 19.4414 73.9316C18.267 74.3382 17.1128 74.8371 16.0119 75.4132C15.0305 75.927 14.427 76.8858 14.3386 77.9296C7.45312 78.0895 3.19777 73.9964 3.12479 73.9248C2.67924 73.4812 1.95857 73.4817 1.5135 73.9263C1.06842 74.3714 1.06842 75.0935 1.5135 75.5385C1.71851 75.7436 6.28834 80.2193 13.9017 80.2193C14.2167 80.2193 14.5384 80.2102 14.8639 80.1943C15.0521 80.6466 15.2595 81.0912 15.4895 81.5219C15.9648 82.4111 16.8002 82.9872 17.7274 83.149C17.542 84.7315 17.4782 87.3597 18.3621 90.4633C18.4408 90.7389 18.6199 90.9746 18.8643 91.1239C18.9469 91.1743 20.5491 92.1322 23.0073 92.1322C23.6007 92.1322 24.2446 92.076 24.9288 91.9382C25.0848 91.9065 25.2327 91.8427 25.3628 91.7505C28.2901 89.6759 28.9018 86.8935 28.9263 86.7759C28.9849 86.4955 28.9359 86.2036 28.7895 85.9578C27.1349 83.1855 25.177 81.4311 23.8979 80.4819C24.4155 79.6955 24.5691 78.693 24.2475 77.7375C24.2297 77.6847 24.2091 77.6329 24.1908 77.5805C26.5237 76.3941 28.874 74.8015 31.1906 72.8354C31.6716 72.4288 31.7302 71.7091 31.3231 71.2289ZM17.5012 80.4469C17.1661 79.8198 16.8814 79.1611 16.6547 78.488C16.5184 78.0822 16.6965 77.629 17.0696 77.4336C18.0711 76.9093 19.1202 76.4561 20.188 76.0859C20.2778 76.0547 20.3704 76.0398 20.4626 76.0398C20.7776 76.0398 21.0839 76.2146 21.24 76.5065C21.5751 77.1321 21.8593 77.7913 22.0864 78.4649C22.2228 78.8706 22.0446 79.3239 21.6716 79.5193C20.6705 80.0436 19.6215 80.4968 18.5532 80.8665C18.1556 81.0048 17.7033 80.8247 17.5012 80.4469ZM26.5708 86.7039C26.3336 87.3463 25.7071 88.6383 24.2407 89.7474C22.4254 90.0552 21.0537 89.625 20.4276 89.359C19.6421 86.2722 19.9071 83.7938 20.0929 82.7308C20.7305 82.4855 21.359 82.2142 21.9746 81.918C22.8753 82.5109 24.8611 84.0156 26.5708 86.7039Z" fill="#81C9B3"/>
<path d="M13.5849 67.276C13.6834 68.3093 12.9113 69.2278 11.8608 69.3276C10.8103 69.4275 9.87886 68.6713 9.78092 67.6381C9.68249 66.6048 10.4545 65.6863 11.505 65.5865C12.5556 65.4861 13.4865 66.2428 13.5849 67.276Z" fill="#5F5C5D"/>
<path d="M26.7397 66.0239C26.8382 67.0571 26.0661 67.9756 25.0156 68.0755C23.9651 68.1753 23.0336 67.4191 22.9357 66.3859C22.8373 65.3527 23.6093 64.4342 24.6598 64.3343C25.7099 64.2344 26.6413 64.9906 26.7397 66.0239Z" fill="#5F5C5D"/>
<path d="M7.51735 84.3844L5.76201 84.6403C3.70563 84.9423 1.79665 83.5168 1.49705 81.4609L1.24115 79.7056C1.15665 79.1299 1.20994 78.5657 1.37126 78.0481C0.896417 74.3968 1.2133 72.5368 2.86398 72.2962C4.24578 72.0917 5.46914 73.2959 5.9267 75.2212L6.17636 75.1852C8.23226 74.8856 10.1417 76.3087 10.4413 78.3646L10.6972 80.1199C10.9964 82.1753 9.57326 84.0848 7.51735 84.3844Z" fill="#FFFA89"/>
<path d="M11.8259 79.9562L11.57 78.1999C11.3813 76.904 10.699 75.7594 9.64945 74.9768C8.79627 74.3406 7.78368 74.005 6.73892 74.0036C5.96448 72.0279 4.42328 70.9116 2.70011 71.167C-0.494171 71.6337 -0.0702189 75.7642 0.211615 77.9603C0.0570145 78.5672 0.0166836 79.2129 0.112229 79.8698L0.368138 81.6256C0.556828 82.9214 1.23909 84.0661 2.28864 84.8487C3.14423 85.4868 4.16017 85.8219 5.20829 85.8219C5.44595 85.8219 5.68601 85.8046 5.92559 85.7695L7.68142 85.5136C8.97728 85.3245 10.1219 84.6427 10.9045 83.5931C11.6876 82.5431 12.0146 81.2516 11.8259 79.9562ZM3.03188 73.4236C3.51297 73.3535 3.99165 73.6901 4.35366 74.2979L4.25571 74.3123C3.54273 74.416 2.88831 74.6709 2.3184 75.0373C2.38418 73.5201 2.84175 73.451 3.03188 73.4236ZM9.07667 82.2296C8.658 82.7908 8.04632 83.1557 7.35302 83.2566L5.59719 83.5125C4.90437 83.6133 4.21347 83.439 3.6522 83.0199C3.09093 82.6012 2.72603 81.9895 2.62521 81.2962L2.3693 79.5404C2.16093 78.1101 3.15479 76.7768 4.58508 76.5679L6.34091 76.312C6.4691 76.2933 6.59729 76.2842 6.72452 76.2842C7.28483 76.2842 7.82834 76.4633 8.2859 76.8046C8.84717 77.2233 9.21206 77.835 9.31289 78.5283L9.56879 80.2846C9.6701 80.9774 9.49486 81.6683 9.07667 82.2296Z" fill="#FFEF45"/>
</svg>
