<svg width="100" height="100" viewBox="0 0 100 100" fill="none" xmlns="http://www.w3.org/2000/svg">
<path d="M44.4302 8.39575C40.9597 5.86462 34.4388 6.50669 29.508 12.6501C24.6401 18.4614 21.3627 29.7735 25.8431 40.9026C29.8206 52.2216 39.7485 58.558 47.2404 59.7117C54.9996 61.0733 60.3225 57.253 61.2604 53.0608C63.2188 44.1189 53.5469 42.1396 49.7584 31.891C45.8421 21.6917 51.802 13.8228 44.4302 8.39575Z" fill="#FFFA89"/>
<path d="M53.9934 52.9987C53.9095 52.9987 53.8244 52.9892 53.7392 52.9688C53.5634 52.9271 49.3829 51.918 44.6518 49.1195C38.3322 45.3808 34.0823 40.2048 32.3623 34.1521C30.0206 25.9116 32.7579 19.0613 35.4666 14.7657C35.7906 14.2519 36.4698 14.0983 36.9837 14.4218C37.4975 14.7458 37.6516 15.425 37.3276 15.9389C34.8581 19.8556 32.3591 26.0906 34.4788 33.5503C38.2733 46.9029 54.0867 50.7897 54.2462 50.8273C54.8375 50.9674 55.2032 51.56 55.0632 52.1509C54.9431 52.6575 54.4918 52.9987 53.9934 52.9987Z" fill="#FFFEC2"/>
<path d="M30.9677 33.5141C30.4579 33.5141 30.0007 33.1579 29.892 32.6391C29.7325 31.8774 29.8838 31.0998 30.3174 30.4491C30.747 29.8039 31.4036 29.3612 32.1662 29.2017C32.9288 29.0422 33.7077 29.1849 34.3597 29.6041C35.0177 30.0268 35.4676 30.6789 35.6271 31.4401C35.7513 32.0351 35.3702 32.6178 34.7752 32.7419C34.1798 32.8656 33.5976 32.485 33.4734 31.8905C33.4358 31.7111 33.3284 31.5566 33.1707 31.4551C33.0072 31.3504 32.81 31.3146 32.6161 31.3554C32.4217 31.3962 32.2559 31.5072 32.148 31.6689C32.0443 31.8248 32.0076 32.0097 32.0452 32.1887C32.1698 32.7836 31.7883 33.3663 31.1938 33.4905C31.1181 33.5063 31.0424 33.5141 30.9677 33.5141Z" fill="#605C5D"/>
<path d="M50.3808 61.096C49.3608 61.096 48.2547 61.0067 47.0612 60.7978C39.224 59.5857 28.9269 52.967 24.8134 41.2914C20.1998 29.8035 23.5687 18.0355 28.6573 11.9537C31.738 8.11982 35.0417 6.70744 37.272 6.19858C40.1815 5.53431 43.0266 6.01144 45.0784 7.5081C45.0797 7.50901 45.0811 7.50991 45.0824 7.51082C49.7582 10.9527 49.6028 15.3942 49.4383 20.0958C49.3196 23.4865 49.185 27.3299 50.785 31.4986C52.3383 35.6995 54.9754 38.4984 57.3027 40.9674C60.5293 44.3917 63.577 47.6256 62.335 53.2973C61.7795 55.7804 59.9566 58.0166 57.3326 59.4371C55.816 60.2577 53.5028 61.096 50.3808 61.096ZM39.8426 8.10033C36.8492 8.10033 33.2786 9.71072 30.3664 13.3393C30.3615 13.3452 30.3565 13.3511 30.3519 13.3574C25.664 18.9539 22.5728 29.8325 26.8643 40.493C26.8706 40.5084 26.876 40.5238 26.8815 40.5392C30.6909 51.3802 40.1924 57.5145 47.4083 58.626C47.416 58.6274 47.4233 58.6283 47.431 58.6296C52.8503 59.5812 59.1034 57.6686 60.1872 52.8224C61.18 48.2899 58.8822 45.8516 55.7018 42.4768C53.2309 39.8546 50.4302 36.8826 48.7264 32.2743C46.9706 27.701 47.1133 23.6197 47.2397 20.0192C47.402 15.3856 47.5189 12.0375 43.7802 9.28434C42.7221 8.51222 41.3555 8.10033 39.8426 8.10033Z" fill="#FFEF45"/>
<path d="M43.4874 14.5827C42.0591 14.9225 40.5797 14.6262 39.3812 13.7494C38.2728 12.9383 37.5397 11.6922 37.3693 10.3292C37.1989 8.96715 37.6027 7.57788 38.4767 6.51939L42.713 1.39006C43.7329 0.154858 45.4331 -0.316841 46.9438 0.217841C47.9085 0.559041 48.6824 1.25503 49.1233 2.17849C49.5642 3.10195 49.619 4.14187 49.2778 5.10611L47.0593 11.3773C46.526 12.8848 45.3438 14.0199 43.8163 14.492C43.7067 14.5265 43.597 14.5564 43.4874 14.5827Z" fill="#605C5D"/>
<path d="M43.3532 30.9249C42.8434 30.9249 42.3862 30.5688 42.2775 30.0499C42.1185 29.2882 42.2693 28.5107 42.703 27.8596C43.1325 27.2143 43.7896 26.7716 44.5522 26.6121C45.3148 26.4526 46.0937 26.5954 46.7457 27.0145C47.4037 27.4373 47.8536 28.0893 48.0131 28.8505C48.1373 29.4455 47.7562 30.0282 47.1612 30.1524C46.5658 30.2756 45.9836 29.8954 45.8594 29.3009C45.8218 29.1215 45.7144 28.9665 45.5567 28.8655C45.3932 28.7608 45.1965 28.725 45.0021 28.7658C44.8077 28.8066 44.6414 28.9176 44.534 29.0794C44.4303 29.2352 44.3936 29.4201 44.4312 29.5995C44.5553 30.1945 44.1743 30.7772 43.5798 30.9014C43.5036 30.9172 43.4275 30.9249 43.3532 30.9249Z" fill="#605C5D"/>
<path d="M88.5199 64.3929C86.6576 63.9642 84.797 63.9792 83.0471 64.3657C84.1491 52.735 77.0623 41.561 65.7537 37.6637C60.5497 35.8703 55.2196 34.6247 49.7636 33.9268C37.6675 32.3794 26.2675 39.2855 22.033 50.3362C20.6229 49.2124 18.9459 48.3782 17.0714 47.9469C10.3688 46.404 3.68483 50.5867 2.1424 57.2893C0.599528 63.9919 4.78229 70.6758 11.4848 72.2187C14.8991 73.0044 18.307 72.3021 21.0344 70.5404C22.6561 74.8722 25.9253 78.4994 30.2608 80.4868C30.7257 80.6998 31.192 80.9068 31.6591 81.1107C30.1625 82.9137 29.3133 84.9732 29.3133 87.1608C29.3133 94.2517 38.2276 100 49.2244 100C60.2211 100 69.1354 94.2517 69.1354 87.1608C69.1354 86.9963 69.129 86.8323 69.1195 86.6692C71.3163 85.82 73.3304 84.5495 75.0482 82.9291C76.7279 85.7312 79.4983 87.874 82.9334 88.6647C89.6359 90.2076 96.3199 86.0248 97.8623 79.3223C99.4047 72.6197 95.222 65.9357 88.5199 64.3929Z" fill="#CC9543"/>
<path d="M85.7272 90.0834C84.7236 90.0834 83.7045 89.9711 82.6859 89.7364C79.4941 89.0019 76.7478 87.1921 74.8306 84.5871C71.2378 87.5555 66.7469 89.1056 62.0467 88.9819C61.4395 88.9656 60.9606 88.4599 60.9769 87.8527C60.9932 87.2451 61.4925 86.7711 62.1061 86.7825C66.6549 86.903 70.9818 85.2518 74.2927 82.1285C74.5352 81.9001 74.8678 81.7927 75.1981 81.8389C75.5284 81.8842 75.8198 82.0773 75.991 82.3627C77.5942 85.037 80.1471 86.8939 83.1793 87.5922C89.2806 88.9969 95.386 85.1757 96.7902 79.0753C98.1944 72.9745 94.3737 66.8692 88.2729 65.465C86.6145 65.083 84.9366 65.0753 83.2845 65.4396C82.941 65.5148 82.5821 65.4228 82.3184 65.1899C82.0552 64.957 81.9188 64.6122 81.9518 64.2619C82.4639 58.858 81.1063 53.3349 78.1293 48.7099C75.1328 44.0545 70.6102 40.5007 65.3953 38.7036C60.2863 36.9433 54.9798 35.7031 49.624 35.0175C44.042 34.3034 38.3199 35.4878 33.5132 38.352C28.7414 41.1954 25.029 45.5911 23.0602 50.7295C22.9347 51.0571 22.6606 51.3049 22.3225 51.3974C21.9849 51.4893 21.622 51.415 21.3479 51.1966C20.0166 50.1359 18.495 49.4036 16.8248 49.0189C13.8696 48.3379 10.8264 48.8495 8.25539 50.4585C5.68484 52.0671 3.89456 54.5805 3.21397 57.5358C2.53384 60.491 3.04496 63.5342 4.65354 66.1052C6.26212 68.6758 8.77558 70.4665 11.7308 71.1466C14.7432 71.8395 17.8353 71.2966 20.4371 69.616C20.7167 69.4352 21.0628 69.3908 21.3791 69.4959C21.6954 69.6006 21.9469 69.8425 22.0638 70.1543C23.6275 74.3312 26.701 77.6448 30.7184 79.4863C31.2707 79.7396 31.5132 80.3921 31.2603 80.9449C31.0075 81.4968 30.3545 81.7392 29.8022 81.4864C25.6439 79.5806 22.3792 76.2837 20.4978 72.1226C17.6477 73.603 14.4061 74.0194 11.2374 73.2903C7.70938 72.4784 4.70882 70.341 2.78849 67.272C0.868167 64.203 0.257813 60.5699 1.06981 57.0423C1.8818 53.5143 4.01917 50.5138 7.08815 48.5935C10.1567 46.6731 13.7898 46.0623 17.3178 46.8748C18.8371 47.2241 20.2536 47.8159 21.5459 48.6383C23.7924 43.6023 27.6005 39.3135 32.3868 36.4616C37.6144 33.3469 43.8349 32.0586 49.9026 32.8353C55.4076 33.5394 60.8613 34.8141 66.1117 36.6234C71.7915 38.5808 76.716 42.45 79.979 47.5187C82.9623 52.1536 84.4522 57.6201 84.2365 63.0539C85.744 62.8853 87.262 62.9741 88.7659 63.3203C96.0484 64.9969 100.61 72.2853 98.9334 79.5679C97.4921 85.8327 91.8983 90.0834 85.7272 90.0834Z" fill="#BD8135"/>
<path d="M60.0094 76.3185C52.0974 75.9959 44.5167 74.2346 37.2668 71.0356C32.8181 69.0722 29.8773 64.9004 29.7106 60.3542C29.6236 57.9758 29.8184 55.6621 30.296 53.4137C32.1651 44.6096 41.0386 38.9347 50.6375 40.2316C54.5312 40.7576 58.3414 41.6471 62.0679 42.9C70.9291 45.8793 76.2914 54.6086 74.343 63.0747C73.8151 65.3689 72.9908 67.5946 71.8703 69.7524C69.6835 73.9623 65.0784 76.5252 60.0094 76.3185Z" fill="#FAEAC0"/>
<path d="M90.3097 77.6679C90.8706 75.2306 89.3495 72.8001 86.9122 72.2391C84.4748 71.6781 82.0443 73.1993 81.4833 75.6366C80.9224 78.0739 82.4435 80.5045 84.8804 81.0654C87.3182 81.626 89.7487 80.1048 90.3097 77.6679Z" fill="#BD8135"/>
<path d="M17.9354 61.0085C18.4964 58.5712 16.9752 56.1406 14.5379 55.5797C12.1006 55.0187 9.67002 56.5398 9.10905 58.9772C8.54809 61.4145 10.0692 63.845 12.5066 64.406C14.9439 64.967 17.3744 63.4458 17.9354 61.0085Z" fill="#BD8135"/>
<path d="M43.418 59.9985C44.2151 61.5323 45.5676 63.0059 47.3004 64.0924C48.3965 64.7816 49.6439 65.3104 50.9969 65.6072C54.4982 66.3635 57.931 65.3557 60.1423 63.6072C60.5397 63.294 60.894 62.9587 61.2057 62.6039C61.8605 61.8586 62.3109 61.0289 62.4962 60.1788C63.586 55.146 59.1912 54.0744 53.7442 52.8967C48.2909 51.7186 43.9482 51.4771 42.7615 55.9132C42.4302 57.1543 42.6926 58.6011 43.418 59.9985Z" fill="#605C5D"/>
<path d="M61.2049 62.603C59.1604 64.9393 55.1231 66.499 50.9965 65.6059C47.5003 64.8492 44.719 62.5015 43.4167 59.9999C46.454 58.3115 53.0283 56.1882 61.2049 62.603Z" fill="#FD80A6"/>
<path d="M53.3971 66.9607C52.5361 66.9607 51.6544 66.8714 50.764 66.6789C47.4607 65.9647 44.4778 63.8835 42.785 61.1114C41.6404 59.2377 41.2553 57.2902 41.6998 55.6286C42.3065 53.3616 43.7021 51.923 45.8481 51.352C45.8549 51.3502 45.8621 51.348 45.8689 51.3462C48.2202 50.7276 51.2869 51.2392 53.9771 51.8206C56.9831 52.4703 59.4209 53.0553 61.1636 54.1623C61.179 54.1723 61.1939 54.1822 61.2089 54.1927C63.368 55.5869 64.1637 57.679 63.5733 60.4108C62.8342 63.8269 58.4942 66.9607 53.3971 66.9607ZM46.4439 53.4699C46.4381 53.4717 46.4322 53.4731 46.4263 53.4749C45.0325 53.8415 44.23 54.6811 43.8244 56.1973C43.5412 57.2562 43.8467 58.6296 44.6623 59.965C46.0271 62.1998 48.5428 63.9479 51.2284 64.5288C56.0986 65.5814 60.7875 62.8826 61.4223 59.9464C61.8233 58.0909 61.3924 56.9164 59.9818 56.0201C59.9691 56.0119 59.9565 56.0033 59.9438 55.9947C58.5065 55.0975 56.2748 54.5683 53.5113 53.9711C51.0834 53.4464 48.3457 52.9774 46.4439 53.4699Z" fill="#605C5D"/>
<path d="M43.4324 51.0942C43.0935 51.0942 42.7596 50.9384 42.5439 50.6438C41.1877 48.7906 38.5759 48.3855 36.7222 49.7417C36.2319 50.1005 35.5441 49.9936 35.1847 49.5033C34.8259 49.013 34.9328 48.3248 35.4231 47.9659C38.256 45.8929 42.2466 46.5118 44.3192 49.3443C44.6781 49.8346 44.5711 50.5228 44.0809 50.8817C43.8856 51.0254 43.6581 51.0942 43.4324 51.0942Z" fill="#605C5D"/>
<path d="M70.8726 55.3463C70.5337 55.3463 70.1993 55.1904 69.9841 54.8959C68.6279 53.0422 66.0161 52.6376 64.1624 53.9938C63.6721 54.3531 62.9843 54.2457 62.6249 53.7559C62.2661 53.2656 62.373 52.5773 62.8633 52.2184C65.6957 50.1459 69.6864 50.7639 71.7594 53.5968C72.1183 54.0871 72.0113 54.7754 71.5211 55.1343C71.3253 55.2774 71.0978 55.3463 70.8726 55.3463Z" fill="#605C5D"/>
<path d="M35.9536 33.8657C36.2309 35.2414 37.409 36.1644 38.5853 35.9274C39.7616 35.6904 40.4903 34.3831 40.2129 33.0075C40.4903 34.3831 41.6684 35.3062 42.8447 35.0692C44.021 34.8322 44.7496 33.5249 44.4723 32.1493L35.9536 33.8657Z" fill="#FFFA89"/>
<path d="M38.2213 37.0629C37.528 37.0629 36.8347 36.8214 36.2543 36.3665C35.551 35.8159 35.0612 35.0044 34.8754 34.0823C34.7553 33.4869 35.141 32.9069 35.7364 32.7868C36.3308 32.6663 36.9117 33.0523 37.0318 33.6477C37.1129 34.0506 37.3241 34.4103 37.6105 34.6346C37.7491 34.7434 38.0319 34.9156 38.3676 34.848C38.7029 34.7805 38.8969 34.5118 38.983 34.3578C39.1601 34.0397 39.2154 33.6264 39.1343 33.2236C39.1194 33.1502 39.1126 33.0773 39.1126 33.0052C39.1126 32.4923 39.4732 32.0333 39.9957 31.9277C40.5906 31.8076 41.1711 32.1932 41.2912 32.7886C41.3723 33.1914 41.5834 33.5512 41.8698 33.7755C42.0085 33.8843 42.2912 34.0569 42.627 33.9889C42.9623 33.9214 43.1567 33.6527 43.2423 33.4987C43.4195 33.1806 43.4747 32.7673 43.3936 32.3645C43.2736 31.7691 43.6592 31.1891 44.2546 31.069C44.8504 30.9485 45.4304 31.3345 45.5505 31.9299C45.7363 32.852 45.5994 33.7896 45.1644 34.5698C44.7045 35.3945 43.9383 35.9686 43.062 36.1458C42.2771 36.3039 41.4498 36.1335 40.7515 35.6782C40.2843 36.3687 39.5879 36.8463 38.8026 37.0044C38.6105 37.0439 38.4161 37.0629 38.2213 37.0629Z" fill="#FFEF45"/>
<path d="M54.1521 29.9652C56.3021 30.8415 57.7376 32.306 56.8613 34.4561C55.985 36.6061 53.5318 37.6384 51.3822 36.7625C49.2321 35.8861 48.1999 33.4329 49.0758 31.2833C49.9517 29.1333 52.002 29.0889 54.1521 29.9652Z" fill="#FFFA89"/>
<path d="M52.9613 38.173C52.2957 38.173 51.6201 38.0471 50.9667 37.7806C49.6549 37.246 48.6295 36.2323 48.0799 34.9269C47.5302 33.621 47.5221 32.1796 48.0568 30.8678C48.6091 29.5125 49.6024 28.6625 50.9296 28.4087C51.9767 28.2094 53.2006 28.3897 54.5672 28.9466C55.9338 29.5035 56.9352 30.2294 57.5442 31.1048C58.3159 32.2136 58.4319 33.5163 57.8795 34.8716C57.0422 36.926 55.0548 38.173 52.9613 38.173ZM51.8005 30.523C50.573 30.523 50.2444 31.3291 50.094 31.6979C49.7813 32.4655 49.7859 33.3092 50.1076 34.0737C50.4293 34.8376 51.0292 35.4307 51.7968 35.7434C53.3814 36.3896 55.1961 35.6256 55.8423 34.0406C56.1948 33.1756 55.9519 32.6676 55.7381 32.3613C55.381 31.8484 54.6891 31.3721 53.7366 30.9838C52.9188 30.6508 52.2885 30.523 51.8005 30.523Z" fill="#FFEF45"/>
<path d="M26.619 38.4155C28.0455 36.5839 29.8444 35.5993 31.6763 37.0257C33.5078 38.4522 33.8368 41.0934 32.4104 42.9249C30.984 44.7564 28.3427 45.0854 26.5112 43.659C24.6792 42.233 25.1926 40.2474 26.619 38.4155Z" fill="#FFFA89"/>
<path d="M29.0826 45.6468C27.909 45.6468 26.7753 45.2594 25.8346 44.5267C24.6801 43.6277 24.1309 42.441 24.2469 41.0948C24.3384 40.0326 24.8441 38.9039 25.7508 37.7394C27.7912 35.119 30.2589 34.5281 32.3519 36.1576C34.6592 37.9546 35.0747 41.2932 33.2776 43.6005C32.4072 44.7184 31.1538 45.4302 29.7478 45.6051C29.5258 45.6332 29.3033 45.6468 29.0826 45.6468ZM27.4867 39.0915C26.8546 39.903 26.4926 40.6611 26.4386 41.2837C26.4065 41.6562 26.4491 42.2171 27.1863 42.7912C27.8406 43.3005 28.6549 43.5248 29.4764 43.4224C30.2988 43.32 31.0328 42.9036 31.5421 42.2493C32.5934 40.899 32.3505 38.9452 31.0002 37.8935C30.5607 37.5518 29.3939 36.6428 27.4867 39.0915Z" fill="#FFEF45"/>
<path d="M41.5181 89.6652L29.3129 86.3756C29.3129 86.3756 24.7359 60.2096 33.2958 59.0125C41.8557 57.8108 41.5181 89.6652 41.5181 89.6652Z" fill="#CC9543"/>
<path d="M54.9028 90.5116C54.9028 90.5116 65.0686 65.0372 72.1849 66.2534C79.3011 67.4691 67.1924 93.2227 67.1924 93.2227L54.9028 90.5116Z" fill="#CC9543"/>
<path d="M41.5181 90.7645C41.514 90.7645 41.5099 90.7645 41.5063 90.7645C40.8987 90.7581 40.4115 90.2602 40.4179 89.653C40.4886 82.9232 39.7029 64.6049 35.2732 60.7113C34.6932 60.2015 34.1136 60.0062 33.4498 60.1C32.6084 60.2178 31.9106 60.6718 31.3165 61.4879C27.8515 66.2479 29.4787 80.9304 30.398 86.1861C30.5027 86.7847 30.1026 87.3543 29.504 87.459C28.9055 87.5641 28.3359 87.1635 28.2308 86.565C28.0894 85.7561 24.8192 66.6752 29.5376 60.1929C30.4878 58.8874 31.7012 58.1235 33.1444 57.9209C34.4535 57.7379 35.6583 58.1208 36.7254 59.0587C39.3399 61.357 41.1216 67.2502 42.021 76.5746C42.6762 83.3641 42.6178 89.6136 42.6173 89.6756C42.6115 90.2796 42.1198 90.7645 41.5181 90.7645Z" fill="#BD8135"/>
<path d="M67.1913 94.3224C67.0346 94.3224 66.8755 94.2889 66.7242 94.2177C66.1745 93.959 65.9385 93.3042 66.1967 92.7541C69.7936 85.1023 74.801 71.6247 72.9265 68.0332C72.7103 67.6195 72.433 67.4111 71.9994 67.3372C69.6627 66.9344 65.9593 70.9912 61.8382 78.4577C58.4792 84.544 55.9494 90.856 55.9245 90.919C55.6993 91.4836 55.059 91.7577 54.4953 91.533C53.9312 91.3078 53.6562 90.6675 53.8814 90.1038C53.9072 90.0395 56.4877 83.5997 59.9124 77.3947C64.7839 68.5679 68.8579 64.57 72.37 65.1686C73.4784 65.358 74.3452 65.9969 74.8767 67.0155C76.2143 69.5788 75.4839 74.7322 72.6442 82.7705C70.6187 88.5034 68.2118 93.6386 68.1877 93.6898C68.0002 94.089 67.6041 94.3224 67.1913 94.3224Z" fill="#BD8135"/>
<path d="M77.4713 37.0072C78.6435 37.9216 80.3092 37.8341 81.3795 36.8028L89.0313 29.4296C90.3395 28.169 90.2285 26.0421 88.7957 24.9247L86.4313 23.0805C84.999 21.9631 82.9088 22.3732 82.0048 23.9491L76.7173 33.1661C75.9778 34.4561 76.2991 36.0932 77.4713 37.0072Z" fill="#6EE3CE"/>
<path d="M70.4108 35.651C71.8966 35.6918 73.1862 34.6337 73.4363 33.1683L75.2243 22.694C75.5302 20.9033 74.179 19.2566 72.3629 19.2068L69.3655 19.1243C67.5494 19.0745 66.1098 20.6441 66.3164 22.4493L67.5258 33.0061C67.6953 34.4824 68.9246 35.6102 70.4108 35.651Z" fill="#6EE3CE"/>
<path d="M80.5064 43.5248C80.105 42.0939 80.8173 40.585 82.1771 39.9855L91.9006 35.7004C93.5631 34.9677 95.4889 35.8771 95.9801 37.6261L96.7902 40.513C97.281 42.262 96.1092 44.0405 94.3081 44.2797L83.7744 45.6781C82.3008 45.8738 80.9079 44.9563 80.5064 43.5248Z" fill="#6EE3CE"/>
</svg>
