<svg width="158" height="100" viewBox="0 0 158 100" fill="none" xmlns="http://www.w3.org/2000/svg">
<path d="M116.683 9.61748C120.044 5.68426 127.864 4.61787 135.355 10.4416C142.679 15.8936 149.674 28.2351 147.527 42.5249C146.023 56.8969 136.157 67.0898 127.7 70.5306C118.988 74.2901 111.685 71.2975 109.417 66.6467C104.629 56.7146 115.41 51.6993 116.992 38.6338C118.736 25.5898 109.558 18.0314 116.683 9.61748Z" fill="#FFFA89"/>
<path d="M117.61 64.9569C116.988 64.9569 116.389 64.6145 116.091 64.0213C115.669 63.1836 116.007 62.1622 116.843 61.7405C117.018 61.6526 134.272 52.7448 134.984 36.3015C135.382 27.107 130.78 20.5907 126.848 16.7433C126.177 16.0871 126.165 15.0115 126.822 14.3403C127.478 13.6692 128.555 13.6577 129.225 14.3146C133.651 18.6459 138.833 26.0013 138.38 36.4487C138.048 44.1186 134.472 51.4561 128.039 57.6672C123.236 62.3052 118.569 64.6774 118.373 64.776C118.127 64.899 117.867 64.9569 117.61 64.9569Z" fill="#FFFEC2"/>
<path d="M123.93 35.3518C123.969 36.7598 123.014 37.9291 121.797 37.9627C120.581 37.9963 119.563 36.882 119.525 35.4733C119.486 34.0652 120.441 32.8959 121.657 32.8623C122.874 32.8287 123.891 33.9437 123.93 35.3518Z" fill="#5F5C5D"/>
<path d="M139.165 34.9321C139.203 36.3401 138.248 37.5094 137.032 37.543C135.815 37.5766 134.798 36.4624 134.759 35.0536C134.72 33.6456 135.675 32.4762 136.892 32.4426C138.108 32.409 139.125 33.524 139.165 34.9321Z" fill="#5F5C5D"/>
<path d="M119.996 73.9357C118.292 73.9357 116.847 73.692 115.701 73.3839C112.125 72.4226 109.279 70.2391 107.891 67.3922C104.764 60.9074 107.482 56.1851 110.359 51.1848C112.379 47.6732 114.668 43.6936 115.306 38.4302C116.011 33.154 114.793 28.7269 113.717 24.8215C112.186 19.2601 110.74 14.0068 115.387 8.519C115.389 8.51686 115.391 8.51541 115.392 8.51327C117.449 6.1053 120.753 4.70443 124.456 4.67083C127.265 4.64439 131.623 5.39128 136.386 9.08935C144.128 14.8616 151.436 27.8456 149.215 42.7394C147.632 57.7146 137.301 68.4508 128.359 72.0974C125.154 73.4768 122.332 73.9357 119.996 73.9357ZM117.978 10.7183C114.493 14.8359 115.541 18.6469 116.993 23.9202C118.154 28.1386 119.47 32.9195 118.676 38.8598C117.958 44.7893 115.485 49.0877 113.303 52.8801C110.575 57.6217 108.604 61.0482 110.947 65.9099C112.926 69.9675 119.483 72.2253 127.026 68.9711C127.037 68.9661 127.048 68.9618 127.059 68.9568C135.105 65.6833 144.412 55.96 145.838 42.3484C145.84 42.3234 145.843 42.2984 145.848 42.2726C147.881 28.7376 141.308 16.9915 134.341 11.8047C134.332 11.7975 134.322 11.7904 134.312 11.7832C127.828 6.74286 120.917 7.28321 117.978 10.7183Z" fill="#FFEF45"/>
<path d="M119.103 16.5897C117.181 16.4625 115.48 15.4618 114.434 13.8444L110.086 7.11439C109.417 6.07944 109.192 4.84579 109.45 3.64073C109.709 2.43568 110.422 1.40431 111.457 0.735308C113.078 -0.312503 115.202 -0.233884 116.741 0.929L123.135 5.7578C124.455 6.75487 125.315 8.2694 125.495 9.9133C125.676 11.5572 125.164 13.2226 124.092 14.4819C122.932 15.8435 121.281 16.6033 119.513 16.6033C119.377 16.604 119.241 16.599 119.103 16.5897Z" fill="#5F5C5D"/>
<path d="M131.145 42.5868C131.932 42.5654 132.493 41.8364 132.343 41.0637C131.911 38.8452 130.687 37.2477 129.289 37.2863C127.876 37.3249 126.734 39.021 126.438 41.2939C126.34 42.0479 126.966 42.7019 127.726 42.6812L131.145 42.5868Z" fill="#E27FA3"/>
<path d="M127.69 44.3811C126.85 44.3811 126.049 44.0266 125.484 43.4005C124.91 42.7651 124.644 41.9181 124.754 41.0754C125.171 37.8555 126.975 35.6498 129.242 35.5876C131.475 35.5233 133.399 37.5961 134.011 40.7395C134.18 41.6058 133.961 42.4963 133.412 43.1818C132.869 43.8593 132.06 44.261 131.192 44.2853L127.773 44.3797C127.745 44.3804 127.718 44.3811 127.69 44.3811ZM129.339 38.9848C129.338 38.9848 129.337 38.9848 129.336 38.9848C129.119 38.9905 128.508 39.6131 128.217 40.9675L130.561 40.9032C130.197 39.5723 129.557 38.9848 129.339 38.9848ZM131.098 40.8882C131.097 40.8882 131.096 40.8882 131.095 40.8882H131.098Z" fill="#5F5C5D"/>
<path d="M70.4775 98.2984H33.6733L35.7182 54.0044H66.9574L70.4775 72.3711V98.2984Z" fill="#CC9543"/>
<path d="M151.485 48.0325H93.8226C91.6727 48.0325 89.7986 49.497 89.2797 51.584L80.8565 88.331H64.1602C61.4077 88.331 59.1763 90.5624 59.1763 93.3149C59.1763 96.0674 61.4077 98.2988 64.1602 98.2988H78.3771L78.3764 98.3017H88.0304H139.02C142.941 98.3017 146.358 95.6307 147.303 91.8254L156.029 53.8433C156.762 50.89 154.528 48.0325 151.485 48.0325Z" fill="#95A1B3"/>
<path d="M134.483 79.7891L139.457 57.69C139.816 56.0976 138.605 54.5845 136.973 54.5845H97.3299C96.1363 54.5845 95.1035 55.4136 94.844 56.5779L89.9295 78.677C89.5757 80.2673 90.7857 81.7761 92.4153 81.7761H131.998C133.19 81.7761 134.222 80.9506 134.483 79.7891Z" fill="white"/>
<path d="M131.999 83.4759H92.4158C91.1207 83.4759 89.9135 82.897 89.1037 81.8863C88.2932 80.8764 87.9902 79.572 88.2718 78.3083L93.1856 56.2086C93.6209 54.2516 95.3256 52.885 97.3304 52.885H136.974C138.27 52.885 139.479 53.4661 140.288 54.4782C141.098 55.491 141.4 56.7975 141.115 58.0626L136.141 80.1617C135.702 82.1129 133.998 83.4759 131.999 83.4759ZM97.3304 56.2836C96.9301 56.2836 96.5907 56.5566 96.5035 56.9469L91.5896 79.046C91.5124 79.3912 91.6604 79.6413 91.7554 79.76C91.8505 79.8779 92.0628 80.0773 92.4158 80.0773H131.999C132.398 80.0773 132.738 79.8057 132.826 79.4162L137.8 57.3171C137.878 56.9719 137.73 56.7203 137.635 56.6024C137.54 56.4837 137.327 56.2843 136.974 56.2843L97.3304 56.2836Z" fill="#70838E"/>
<path d="M156.512 48.7837C155.295 47.2262 153.462 46.3328 151.485 46.3328H148.615C148.59 46.3321 148.566 46.3321 148.542 46.3328H93.7918L93.6088 46.3364C93.5981 46.3364 93.5874 46.3371 93.576 46.3371C90.7577 46.4422 88.2969 48.4942 87.5914 51.3274C87.5886 51.3374 87.5864 51.3482 87.5836 51.3582L79.502 86.6307H64.3681C60.6764 86.6307 57.5859 89.5368 57.4787 93.1098C57.4243 94.9345 58.0926 96.6599 59.3627 97.9679C60.6321 99.2766 62.336 99.997 64.1586 99.997L139.019 99.9999C143.73 99.9999 147.814 96.8071 148.958 92.2049L157.676 54.2522C158.154 52.3345 157.729 50.3411 156.512 48.7837ZM90.8935 52.1351C91.2388 50.7742 92.3852 49.7893 93.6903 49.7343L93.8225 49.7314H146.44L138.485 83.9754C138.08 85.5392 136.673 86.6307 135.055 86.6307H82.9892L90.8935 52.1351ZM64.1593 96.5991C63.263 96.5991 62.4261 96.2446 61.8021 95.6014C61.1781 94.9588 60.8494 94.1097 60.8758 93.212C60.9287 91.4573 62.4954 90.0293 64.3681 90.0293H111.402C110.86 90.9463 110.536 91.9955 110.503 93.1098C110.466 94.3549 110.773 95.5499 111.37 96.6013L64.1593 96.5991ZM154.372 53.4624L145.653 91.4144C144.894 94.4685 142.166 96.6013 139.019 96.6013H117.237C117.219 96.6006 117.201 96.5984 117.183 96.5984C116.287 96.5984 115.45 96.2439 114.825 95.6006C114.201 94.9581 113.872 94.109 113.9 93.2113C113.953 91.4566 115.519 90.0285 117.392 90.0285H135.055C138.234 90.0285 141 87.8765 141.782 84.7952C141.785 84.7838 141.787 84.773 141.79 84.7616L149.928 49.7307H151.484C152.408 49.7307 153.264 50.1481 153.833 50.8757C154.403 51.6048 154.602 52.5368 154.372 53.4624Z" fill="#70838E"/>
<path d="M123.947 60.8599C123.413 60.0887 122.355 59.8957 121.583 60.4297L113.5 66.0254L106.165 59.5505C105.462 58.9294 104.388 58.9966 103.767 59.6999C103.145 60.4032 103.213 61.4775 103.916 62.0986L110.622 68.0188L103.23 73.137C102.459 73.671 102.266 74.7295 102.799 75.5014C103.13 75.9781 103.659 76.234 104.198 76.234C104.532 76.234 104.869 76.1361 105.164 75.9317L113.247 70.336L120.582 76.8108C120.905 77.096 121.306 77.2361 121.707 77.2361C122.177 77.2361 122.645 77.0417 122.981 76.6614C123.602 75.9581 123.535 74.8839 122.832 74.2635L116.125 68.344L123.518 63.2257C124.289 62.6897 124.481 61.6311 123.947 60.8599Z" fill="#DD528B"/>
<path d="M75.5493 77.7772C79.1594 78.6963 81.7639 80.709 80.8448 84.3192C79.9256 87.9293 76.2533 90.1107 72.6424 89.1916C69.0315 88.2724 66.8501 84.6001 67.77 80.9892C68.6892 77.379 71.9391 76.858 75.5493 77.7772Z" fill="#CC9543"/>
<path d="M74.3064 91.1008C73.6188 91.1008 72.9198 91.0158 72.2236 90.8385C67.7115 89.6892 64.9747 85.0827 66.124 80.5698C67.1804 76.4236 70.767 74.8061 75.9696 76.1298C81.17 77.455 83.548 80.592 82.4923 84.7382C81.5195 88.5549 78.0752 91.1008 74.3064 91.1008ZM72.6589 79.0674C70.0122 79.0674 69.5962 80.7042 69.4168 81.4089C68.73 84.1056 70.3653 86.8581 73.062 87.545C75.7587 88.2318 78.5112 86.5965 79.1981 83.8998C79.4232 83.0164 80.0207 80.6692 75.1305 79.4241C74.142 79.1725 73.3286 79.0674 72.6589 79.0674Z" fill="#BD8135"/>
<path d="M141.036 43.7564C143.377 44.8035 144.909 46.4739 143.862 48.8153C142.815 51.1568 140.068 52.2068 137.726 51.1597C135.384 50.1126 134.334 47.3658 135.381 45.0236C136.428 42.6828 138.693 42.71 141.036 43.7564Z" fill="#FFFFA1"/>
<path d="M139.619 53.2673C138.739 53.2673 137.86 53.0815 137.032 52.7112C135.486 52.0201 134.3 50.7678 133.695 49.1847C133.091 47.6015 133.138 45.8783 133.83 44.3309C135.15 41.379 138.102 40.5842 141.729 42.2052C143.304 42.9093 144.454 43.8084 145.145 44.8769C145.777 45.8511 146.336 47.4464 145.413 49.5092C144.721 51.0559 143.469 52.2409 141.886 52.8456C141.15 53.1272 140.384 53.2673 139.619 53.2673ZM138.345 44.7726C137.355 44.7726 137.078 45.3923 136.932 45.7182C136.611 46.4365 136.589 47.237 136.869 47.9718C137.15 48.7065 137.701 49.2876 138.419 49.6085C139.137 49.9294 139.938 49.9516 140.673 49.6714C141.407 49.3905 141.989 48.8402 142.31 48.1219C142.63 47.4071 142.481 47.014 142.293 46.7238C141.973 46.23 141.28 45.7275 140.342 45.3079C139.468 44.917 138.824 44.7726 138.345 44.7726Z" fill="#FFEF45"/>
<path d="M116.842 42.9799C119.395 42.7326 121.552 43.4273 121.8 45.9804C122.047 48.5334 120.179 50.8042 117.625 51.0515C115.072 51.2995 112.801 49.4304 112.554 46.8767C112.306 44.3243 114.288 43.2272 116.842 42.9799Z" fill="#FFFFA1"/>
<path d="M117.172 52.7734C113.947 52.7734 111.18 50.3161 110.862 47.0419C110.55 43.8234 112.724 41.6727 116.678 41.2889C120.627 40.9044 123.179 42.5976 123.491 45.8168C123.828 49.2983 121.271 52.406 117.789 52.7434C117.582 52.7634 117.376 52.7734 117.172 52.7734ZM117.814 44.6289C117.571 44.6289 117.303 44.6425 117.006 44.6711C114.074 44.9555 114.194 46.187 114.245 46.7131C114.402 48.3291 115.844 49.5163 117.461 49.3605C119.077 49.2033 120.265 47.7609 120.108 46.1449C120.062 45.6717 119.962 44.6289 117.814 44.6289Z" fill="#FFEF45"/>
<path d="M99.5027 38.5063C98.1769 25.4837 88.6637 14.3316 75.3566 11.1817C68.9104 9.65506 62.3741 8.80523 55.7491 8.61582C41.3471 8.21986 28.6176 17.8117 24.9309 31.3896C23.1255 30.2125 21.0284 29.4112 18.7505 29.1053C10.541 28.0039 2.99193 33.7618 1.8898 41.9764C0.788386 50.1859 6.55134 57.7357 14.7609 58.8371C18.9678 59.4018 23.0011 58.1596 26.0809 55.7123C28.5832 60.8284 33.0189 64.8638 38.6061 66.7951C51.2498 71.1664 64.2553 72.8789 77.6116 71.9419C82.2446 71.6174 86.543 69.7848 89.9559 66.8787C91.111 67.3504 92.3439 67.6863 93.6383 67.86C101.848 68.9614 109.398 63.1985 110.499 54.989C111.514 47.4206 106.694 40.4182 99.5027 38.5063Z" fill="#CC9543"/>
<path d="M95.6664 69.7007C94.9181 69.7007 94.1655 69.6506 93.4107 69.5499C91.9998 69.3604 90.6189 68.9931 89.3081 68.4577L90.5932 65.3114C91.6375 65.7381 92.7374 66.0305 93.8624 66.1813C97.384 66.6537 100.877 65.7267 103.702 63.571C106.526 61.4154 108.341 58.2891 108.813 54.7683C109.703 48.1455 105.513 41.8608 99.0708 40.149L99.9435 36.8647C108.036 39.0147 113.298 46.9062 112.182 55.2207C111.589 59.6414 109.309 63.566 105.764 66.2728C102.823 68.5171 99.303 69.7007 95.6664 69.7007Z" fill="#BD8135"/>
<path d="M52.7484 56.1204C61.8049 59.1102 71.0987 60.3381 80.6283 59.8049C86.4764 59.4776 91.5603 56.0204 93.6752 50.9657C94.7817 48.3212 95.5421 45.6302 95.9574 42.8927C97.582 32.1745 89.9836 22.0151 78.6121 19.4085C73.9991 18.3507 69.3268 17.7388 64.5945 17.5716C53.3417 17.1742 43.5954 24.7426 42.2038 35.1135C41.8265 37.9238 41.8122 40.7828 42.161 43.6904C42.84 49.364 46.9454 54.2049 52.7484 56.1204Z" fill="#F5E9C1"/>
<path d="M11.1042 43.3102C11.5051 40.3247 14.2497 38.2291 17.2359 38.6293C20.2214 39.0303 22.317 41.7749 21.9168 44.7611C21.5165 47.7466 18.7712 49.8422 15.7857 49.4419C12.7995 49.041 10.7039 46.2956 11.1042 43.3102Z" fill="#BD8135"/>
<path d="M75.7496 9.52937C69.2197 7.9841 62.5054 7.10568 55.7933 6.91985C48.4865 6.72115 41.2011 9.01762 35.3073 13.399C30.034 17.3193 26.0493 22.7607 23.9279 28.8853C22.3727 28.1441 20.7145 27.6531 18.9755 27.4193C9.84755 26.1929 1.51438 32.6234 0.290028 41.7492C-0.303207 46.1699 0.774615 50.5569 3.48063 54.1028C6.18735 57.6486 10.112 59.9272 14.5327 60.5204C18.4016 61.0401 22.2247 60.2181 25.494 58.1975C28.3393 62.9777 32.735 66.565 38.0491 68.4012C38.9075 68.6978 39.7745 68.9844 40.6265 69.2539C41.5227 69.5369 42.4762 69.0409 42.7593 68.146C43.0423 67.2512 42.5462 66.2963 41.6514 66.0132C40.8273 65.7531 39.9889 65.475 39.1598 65.1884C34.0751 63.4309 29.9725 59.8 27.6067 54.9648C27.3809 54.5023 26.957 54.1678 26.4553 54.0542C25.9535 53.9405 25.4268 54.0606 25.0236 54.3808C22.1625 56.653 18.5981 57.6372 14.9851 57.1519C11.4643 56.6794 8.33801 54.864 6.18235 52.04C4.02669 49.2161 3.09966 45.7224 3.57211 42.2009C4.54773 34.932 11.2577 29.8109 18.5231 30.7879C20.4986 31.0531 22.3427 31.7357 24.0037 32.8171C24.459 33.113 25.0287 33.1744 25.5368 32.9807C26.0443 32.787 26.4288 32.3625 26.5711 31.8386C28.2629 25.6096 32.0853 20.0303 37.3351 16.1271C42.6199 12.1989 49.1412 10.1305 55.6996 10.3177C62.1795 10.4978 68.6622 11.3455 74.9669 12.8379C88.4041 16.0178 97.8544 27.7531 97.9673 41.389C97.9666 41.4097 97.9666 41.4297 97.9666 41.4504C97.9752 43.0414 97.8644 44.5939 97.6371 46.0662C97.0639 49.8279 96.0561 53.5874 94.6416 57.2426C93.6903 59.7171 92.4502 61.8263 90.9557 63.5116C90.9328 63.5374 90.9114 63.5638 90.8899 63.5903C87.427 67.5213 82.6726 69.8843 77.4921 70.2481C71.9936 70.634 66.4808 70.5597 61.1081 70.0265C60.1739 69.9365 59.342 70.6162 59.2498 71.5496C59.1568 72.4831 59.8387 73.3157 60.7729 73.4087C63.4324 73.6724 66.1241 73.8211 68.8316 73.8682C69.9652 76.655 71.9093 78.8343 75.2428 79.4497C75.3479 79.4682 75.4522 79.4775 75.5545 79.4775C76.3564 79.4775 77.0718 78.9043 77.2226 78.0866C77.392 77.1646 76.7816 76.2762 75.8596 76.1068C74.428 75.8424 73.3888 75.0426 72.6311 73.8668C74.3301 73.8325 76.0312 73.7574 77.7315 73.6381C83.844 73.2085 89.4469 70.4103 93.5102 65.7581C93.5288 65.7366 93.5473 65.7152 93.5645 65.693C95.3006 63.7146 96.7308 61.2824 97.8136 58.4656C99.3167 54.5831 100.388 50.5834 100.998 46.5808C101.249 44.9541 101.373 43.2437 101.367 41.4955C101.367 41.4726 101.367 41.4504 101.367 41.4276C101.271 26.1929 90.737 13.0766 75.7496 9.52937Z" fill="#BD8135"/>
<path d="M61.5989 36.9927C61.0872 36.9927 60.5819 36.7625 60.2467 36.3244C59.494 35.338 58.4026 34.7048 57.174 34.5397C55.9461 34.3753 54.7253 34.6983 53.7397 35.451C52.9935 36.0206 51.9271 35.8769 51.3574 35.1315C50.7878 34.3853 50.9314 33.3189 51.6769 32.7493C53.3844 31.4456 55.4965 30.8845 57.6264 31.1711C59.7549 31.4563 61.6454 32.5541 62.9491 34.2616C63.5187 35.0078 63.3751 36.0742 62.6296 36.6439C62.3208 36.879 61.9585 36.9927 61.5989 36.9927Z" fill="#5F5C5D"/>
<path d="M94.7474 41.441C94.2356 41.441 93.7303 41.2109 93.3951 40.7727C91.8419 38.7379 88.9229 38.3469 86.8873 39.8993C86.1419 40.469 85.0755 40.3253 84.5058 39.5798C83.9362 38.8343 84.0798 37.7679 84.826 37.1983C88.3504 34.508 93.4065 35.1863 96.0975 38.7114C96.6671 39.4569 96.5235 40.5233 95.778 41.0929C95.4692 41.3274 95.1069 41.441 94.7474 41.441Z" fill="#5F5C5D"/>
<path d="M62.8651 46.3922C62.3091 50.5341 66.6847 51.2689 72.1053 51.9965C72.9809 52.1137 73.825 52.2216 74.6341 52.3081C78.8517 52.7484 82.0302 52.5018 82.4962 49.026C82.5312 48.763 82.5455 48.4964 82.547 48.2398C82.5384 44.388 78.7653 40.8794 73.6885 40.1982C71.6843 39.9295 69.7645 40.1368 68.1056 40.7178C65.534 41.6198 63.5985 43.411 63.0081 45.6896C62.9459 45.9162 62.8973 46.1506 62.8651 46.3922Z" fill="#5F5C5D"/>
<path d="M62.8651 46.3923C62.3091 50.5342 66.6847 51.269 72.1053 51.9966C72.9809 52.1138 73.825 52.2217 74.6341 52.3082C73.8171 49.0647 70.3878 46.3351 65.9657 45.7412C64.95 45.6047 63.9565 45.5918 63.0081 45.689C62.9459 45.9163 62.8973 46.1507 62.8651 46.3923Z" fill="#E27FA3"/>
<path d="M77.3135 54.1729C75.7246 54.1729 73.9292 53.9548 71.8807 53.6804C68.8738 53.2773 66.4237 52.8978 64.5289 52.0165C61.3154 50.5212 60.9359 48.0096 61.1832 46.1656C61.5241 43.624 63.0965 41.4326 65.6103 39.9953C67.9761 38.6422 70.9258 38.1183 73.9149 38.5193C76.9039 38.9203 79.6114 40.2039 81.5369 42.1323C83.5832 44.1822 84.5216 46.711 84.1807 49.2519C83.9334 51.0959 82.9049 53.4181 79.4112 54.0135C78.7551 54.125 78.0568 54.1729 77.3135 54.1729ZM71.9529 41.785C70.2454 41.785 68.6315 42.1823 67.2978 42.945C65.7239 43.8448 64.7483 45.1492 64.5518 46.6173C64.4188 47.6072 64.6075 48.3034 65.9627 48.9345C67.42 49.6128 69.71 49.9595 72.3324 50.3118C78.793 51.1795 80.5348 50.8672 80.8121 48.7994C81.0094 47.3314 80.4126 45.8161 79.1311 44.5331C77.7295 43.1294 75.7167 42.1895 73.4625 41.8872C72.9557 41.8185 72.4504 41.785 71.9529 41.785Z" fill="#5F5C5D"/>
<path d="M34.8472 78.359C40.9904 51.444 59.7495 44.4109 64.1473 52.6497C68.5451 60.8878 58.112 68.2354 54.1187 59.9244C54.1187 59.9244 55.0572 70.8356 47.3315 79.351L34.8472 78.359Z" fill="#CC9543"/>
<path d="M33.6734 99.9978C33.6677 99.9978 33.6613 99.9978 33.6548 99.9978C32.7164 99.9878 31.9637 99.2187 31.9737 98.2803C31.9802 97.6863 32.1403 83.6688 33.1759 78.051C34.7855 69.3218 38.0891 61.7985 42.7285 56.2949C46.6717 51.617 51.5462 48.5286 56.1005 47.8217C60.3768 47.1591 63.9463 48.6637 65.6459 51.8493C67.3685 55.0763 67.3106 58.6936 65.4915 61.5261C63.9062 63.9941 61.2889 65.4258 58.6765 65.2657C57.773 65.2099 56.3979 64.9233 55.0499 63.8633C53.8384 68.983 50.9937 78.2997 45.3387 84.5329C44.7083 85.2277 43.6333 85.2806 42.9386 84.6494C42.2431 84.019 42.191 82.9441 42.8221 82.2493C50.1203 74.2049 52.4168 59.8086 52.4396 59.6642C52.5533 58.928 53.1329 58.352 53.8698 58.2433C54.606 58.1347 55.3279 58.5171 55.6503 59.1882C56.4558 60.8643 57.5743 61.7935 58.8859 61.8742C60.2511 61.9614 61.7256 61.1016 62.6326 59.69C63.794 57.8817 63.7997 55.6074 62.6483 53.4503C61.6441 51.5698 59.4491 50.7414 56.6223 51.181C49.1669 52.3381 39.6958 61.4332 36.5181 78.6678C35.5353 83.999 35.3731 98.1745 35.3716 98.3167C35.3623 99.2488 34.6033 99.9978 33.6734 99.9978Z" fill="#BD8135"/>
</svg>
