<svg width="191" height="197" viewBox="0 0 191 197" fill="none" xmlns="http://www.w3.org/2000/svg">
<path opacity="0.974" d="M131.952 27.7315L137.305 27.8001L135.616 22.7205C135.344 21.902 134.861 21.3844 134.743 21.2588L134.738 21.2527C134.547 21.0479 134.364 20.8923 134.247 20.7972C134.006 20.6012 133.751 20.4266 133.541 20.2893C133.103 20.0036 132.55 19.6803 131.945 19.3458C130.719 18.6679 129.079 17.833 127.264 16.9811C123.705 15.3101 119.132 13.4108 115.556 12.5743C99.559 8.79772 83.6225 9.1522 67.8093 13.6364L67.6187 13.6905L67.4347 13.764C49.2597 21.0284 34.5383 31.3506 24.0192 44.9437C13.4856 58.5554 7.32407 75.2442 5.96986 94.9625C5.63101 99.8963 5.6271 102.771 5.97006 107.71C9.12817 153.198 41.0839 188.857 86.8621 192.73C92.6052 193.215 95.9952 193.256 101.789 192.727C127.063 190.423 143.895 179.442 158.809 161.899C168.242 151.344 171.122 139.137 167.236 125.739L159.775 127.032C159.822 127.805 159.684 128.711 159.37 129.966C159.293 130.273 159.193 130.643 159.084 131.049C158.868 131.845 158.615 132.782 158.423 133.668C156.876 134.147 155.45 134.412 153.831 134.713C152.989 134.87 152.096 135.036 151.106 135.247C148.016 135.906 144.656 136.923 141.021 139.467C133.706 144.587 130.971 150.845 128.389 156.753C128.004 157.633 127.623 158.506 127.231 159.365C125.926 160.835 124.347 161.768 122.397 162.214C110.077 162.429 97.9203 159.907 85.3691 157.304C81.9532 156.595 78.508 155.881 75.0222 155.213C70.204 153.26 67.1128 151.707 65.0439 149.703C63.1341 147.853 61.8311 145.34 61.44 140.737L61.127 137.054L57.4362 137.256C54.989 137.39 52.5565 137.288 50.1353 136.951C49.9727 136.785 49.8244 136.613 49.6896 136.433C50.38 135.294 51.1532 134.594 51.9449 134.165C53.0557 133.564 54.6627 133.246 57.0571 133.62L61.9279 134.379L61.4345 129.474C61.3856 128.988 61.3441 128.483 61.3011 127.959C61.1015 125.53 60.8682 122.691 59.7068 119.415C58.6399 116.406 57.1414 114.126 55.6301 112.193C54.9634 111.34 54.274 110.53 53.6441 109.79C53.5767 109.711 53.51 109.633 53.444 109.555C52.7418 108.729 52.1099 107.977 51.5219 107.195L45.1957 98.7791C44.9839 95.4506 45.5542 91.6699 46.5406 87.9574C47.318 85.0316 48.281 82.413 49.0534 80.5212C49.4382 79.5789 49.772 78.8258 50.0061 78.3154C50.0497 78.2201 50.0899 78.1335 50.1262 78.0557L68.0491 59.1371L68.5995 58.5561L68.8696 57.8026L68.8697 57.8023L68.8704 57.8005L68.8733 57.7924L68.8854 57.7587L68.9341 57.6234C68.9773 57.5038 69.0414 57.3263 69.1246 57.0973C69.2909 56.6391 69.5334 55.9746 69.8364 55.153C70.4426 53.5092 71.2899 51.2404 72.2541 48.7402C74.0714 44.0277 76.2455 38.6469 77.991 35.0458C82.3805 31.6876 87.2878 29.4184 92.7513 28.2257C105.814 27.7288 118.881 27.564 131.952 27.7315ZM43.9379 110.197L44.7003 110.085C44.7727 111.277 44.705 112.455 44.4969 113.623C43.2479 114.827 42.0933 116.11 41.0344 117.473C40.0243 117.791 39.2879 117.912 38.7855 117.926C38.6134 117.931 38.4902 117.923 38.406 117.912C38.3794 117.832 38.348 117.712 38.3196 117.542C38.243 117.083 38.2183 116.409 38.3084 115.478C39.7933 114.079 41.0618 112.502 42.1056 110.754C42.6974 110.472 43.3051 110.29 43.9379 110.197ZM38.2538 117.88C38.2541 117.879 38.26 117.881 38.2706 117.886C38.2589 117.882 38.2536 117.88 38.2538 117.88ZM38.4578 118.04C38.4647 118.05 38.4677 118.055 38.4674 118.055C38.4671 118.056 38.4637 118.051 38.4578 118.04Z" fill="#CC9543" stroke="#FDF5CD" stroke-width="7.61905"/>
<path d="M133.223 20.3117L132.652 20.1186L132.05 20.1109C128.911 20.0706 125.833 19.8069 122.671 19.4887C121.973 19.4185 121.267 19.3451 120.554 19.2711C118.085 19.0146 115.539 18.75 112.98 18.5794C106.291 18.1334 99.1579 18.2953 91.1433 20.7923C90.2708 21.0641 89.4184 21.3195 88.5822 21.57C82.86 23.2845 77.8927 24.7728 72.4004 29.757C67.9222 33.8209 66.3908 38.3732 65.2683 42.4422C65.1231 42.9687 64.9851 43.4822 64.8501 43.9846C63.9251 47.4278 63.1397 50.3514 61.1066 53.3667C56.8076 59.7428 52.5026 63.6615 47.6078 68.1172C46.2267 69.3743 44.7986 70.6742 43.3106 72.0841L43.1119 72.2723L42.9422 72.487C38.6441 77.9237 36.1045 83.7342 35.6085 89.8856C35.1125 96.0357 36.6862 102.19 40.051 108.27L41.2573 110.45L43.7381 110.219C44.0627 110.189 44.2715 110.208 44.3905 110.23C44.502 110.251 44.5455 110.277 44.5559 110.283C44.5658 110.289 44.6014 110.311 44.6616 110.386C44.7267 110.468 44.8313 110.627 44.9455 110.91L45.1324 111.372L45.432 111.771C46.1718 112.755 46.9375 113.662 47.6401 114.488C47.705 114.565 47.7694 114.64 47.8332 114.715C48.4786 115.474 49.0645 116.162 49.6276 116.883C50.8297 118.421 51.8232 119.977 52.526 121.959C53.2936 124.124 53.4631 125.796 53.6494 127.965C53.1117 128.237 52.4756 128.593 51.946 129.011C51.6219 129.266 50.6912 130.024 50.2805 131.325C50.0354 132.102 49.9895 133.04 50.331 133.988C50.4615 134.35 50.631 134.665 50.8169 134.936C51.6685 136.573 53.1066 137.459 54.1495 137.93C54.167 137.938 54.1845 137.946 54.2021 137.954L53.5701 138.103L53.8486 141.38C54.8923 153.664 62.9632 159.605 71.1669 165.645C71.3386 165.771 71.5104 165.898 71.6821 166.024C79.8809 172.065 88.4538 175.469 97.4005 176.169C106.334 176.867 115.372 174.848 124.485 170.465C127.732 168.904 129.776 167.837 132.825 165.446C137.234 161.987 138.88 157.533 140.148 154.1C140.199 153.962 140.249 153.826 140.299 153.691C141.641 150.073 142.686 147.6 145.39 145.707C147.377 144.316 149.428 144.186 152.689 143.978L152.932 143.962C156.127 143.757 160.501 143.412 164.235 139.677C164.97 138.941 165.725 138.004 166.396 136.801C167.612 134.619 167.836 132.517 167.775 130.724C167.746 129.868 167.65 129.048 167.569 128.378L167.55 128.217C167.472 127.577 167.411 127.07 167.38 126.566L167.38 126.557L167.379 126.549C167.076 121.916 165.697 117.584 163.262 113.605L163.186 113.481L163.101 113.363C162.114 111.996 160.886 110.997 159.484 110.393C159.419 108.137 158.883 105.986 157.746 104.037C155.981 101.011 153.076 98.998 149.584 97.7466L147.389 96.96L145.69 98.557C137.487 106.267 128.347 112.644 118.258 117.696C108.985 121.124 100.164 120.58 91.5221 116.067C84.6164 109.008 81.7502 102.539 81.8851 96.6051C82.0205 90.6445 85.2062 84.2607 92.4937 77.4454C105.081 70.4802 118.61 66.6423 133.127 65.926C134.864 65.9084 136.451 65.5679 137.875 64.85C139.324 64.1196 140.392 63.1057 141.212 62.0579C142.003 61.0476 142.604 59.9489 143.086 59.0213C143.251 58.7036 143.4 58.4101 143.542 58.1307C143.857 57.5115 144.136 56.9617 144.474 56.3711C147.579 50.9499 146.629 45.7315 145.183 41.459C144.704 40.0409 144.103 38.5492 143.554 37.1871C143.315 36.5929 143.085 36.0233 142.88 35.4952C142.161 33.6442 141.624 32.0327 141.376 30.5142C141.082 28.1803 140.3 26.0077 138.869 24.1856C137.412 22.3316 135.463 21.0698 133.223 20.3117Z" stroke="#FDF5CD" stroke-width="7.61905"/>
<path opacity="0.974" fill-rule="evenodd" clip-rule="evenodd" d="M132.001 23.9223C118.755 23.7526 105.513 23.9224 92.2761 24.4316C85.8366 25.7846 80.0646 28.5007 74.9601 32.5803C71.1677 40.1026 65.2835 56.5171 65.2835 56.5171L46.9489 75.8703C46.9489 75.8703 37.2304 95.3081 43.3839 106.428C41.9357 106.641 40.5777 107.15 39.3095 107.956C38.167 110.119 36.6391 111.986 34.7259 113.558C33.4727 120.963 36.3587 123.34 43.3839 120.688C44.7232 118.838 46.2511 117.14 47.9675 115.595C48.4722 113.586 48.6419 111.548 48.4768 109.484C51.1323 113.016 54.3466 115.697 56.1162 120.688C57.329 124.109 57.3345 126.777 57.6441 129.856C51.7002 128.929 47.6259 131.136 45.421 136.476C46.0329 138.111 47.0515 139.469 48.4768 140.551C51.5138 141.058 54.5696 141.228 57.6441 141.06C58.5438 151.648 63.9763 154.874 73.9415 158.885C90.0922 161.958 106.39 166.373 122.834 166.015C125.938 165.398 128.485 163.87 130.473 161.432C133.828 154.206 135.657 147.871 143.206 142.588C149.339 138.295 154.486 139.108 160.522 136.986C161.226 136.451 161.736 135.772 162.049 134.948C162.556 132.253 163.744 129.537 163.577 126.8C167.092 138.918 164.545 149.783 155.938 159.395C141.526 176.359 125.55 186.735 101.443 188.934C95.8975 189.439 92.7324 189.403 87.1832 188.934C43.446 185.234 12.8105 151.235 9.77043 107.447C9.43982 102.685 9.44337 99.9857 9.77043 95.2235C12.3869 57.1255 33.4918 31.4332 68.8486 17.3014C84.0389 12.9938 99.3177 12.6543 114.685 16.2829C121.027 17.7653 126.798 20.3118 132.001 23.9223Z" fill="#CC9543"/>
<path fill-rule="evenodd" clip-rule="evenodd" d="M132.001 23.9201C135.297 25.0354 137.164 27.4121 137.604 31.0502C138.84 38.8559 145.768 46.4473 141.169 54.4777C139.001 58.2629 138.169 62.0991 133.02 62.1172C117.739 62.8592 103.479 66.9336 90.2393 74.3402C74.3618 88.972 74.0222 103.911 89.2207 119.158C99.0536 124.468 109.24 125.147 119.778 121.195C130.27 115.964 139.776 109.343 148.299 101.333C154.131 103.423 156.508 107.497 155.429 113.556C157.354 113.349 158.882 114.028 160.013 115.593C162.127 119.049 163.315 122.784 163.578 126.798C163.745 129.535 164.621 132.161 163.068 134.946C162.584 135.815 162.05 136.474 161.541 136.983C156.247 142.278 149.34 138.293 143.206 142.586C135.658 147.869 137.723 156.762 130.474 162.448C127.736 164.595 125.97 165.524 122.834 167.032C105.567 175.336 89.3668 174.323 73.9419 162.958C65.3593 156.634 58.5442 151.646 57.6444 141.058C57.8642 141.006 57.465 140.143 57.6442 140.039C59.1222 139.18 59.9288 137.503 60.7 136.474C61.8954 134.88 55.1159 135.795 54.0794 132.909C52.725 131.807 59.3458 130.109 57.6444 129.853C57.3348 126.775 57.3294 124.107 56.1165 120.686C54.3469 115.695 51.1326 113.014 48.4771 109.482C47.5598 107.213 45.8622 106.195 43.3842 106.426C37.2307 95.3059 38.0795 84.7805 45.9307 74.8495C52.4145 68.7064 58.4451 64.1285 64.2653 55.4963C69.7868 47.3071 67.6464 39.2155 74.9604 32.5781C80.4949 27.5556 85.1411 26.6525 92.2765 24.4294C107.089 19.8144 118.756 23.7504 132.001 23.9201Z" fill="#351500"/>
<path fill-rule="evenodd" clip-rule="evenodd" d="M49.4953 83.0006C54.1955 78.8213 65.3586 86.4508 62.737 92.1679C61.0686 95.8062 57.5117 97.4452 53.5697 96.7515C50.2339 96.1645 47.8771 94.4066 46.9489 91.1493C46.0352 87.9429 47.0038 85.216 49.4953 83.0006Z" fill="#F9D006"/>
<path fill-rule="evenodd" clip-rule="evenodd" d="M63.7554 99.2975C67.5785 98.7523 70.7329 101.22 71.9041 104.9C72.9729 108.258 72.254 111.55 69.3576 113.558C65.7878 116.033 60.7127 114.332 58.6624 110.502C56.3939 106.265 58.9971 99.976 63.7554 99.2975Z" fill="#F9D006"/>
<path fill-rule="evenodd" clip-rule="evenodd" d="M43.0683 105.461C46.1042 105.178 47.9866 106.689 49.3078 109.205C50.6721 111.803 49.7976 113.978 48.6839 116.693C47.4396 119.725 46.1985 121.958 43.0683 122.932C37.9445 124.527 31.8531 119.528 32.4612 114.197C32.8536 110.756 35.1332 109.158 38.0767 107.333C39.8462 106.236 41.2942 105.722 43.0683 105.461Z" fill="#F9D006"/>
<path fill-rule="evenodd" clip-rule="evenodd" d="M57.6451 129.855C59.3464 130.11 60.9835 130.38 62.2287 131.892C64.7732 134.982 61.1772 139.176 57.6451 141.059C54.481 142.746 51.3876 142.645 48.4778 140.55C46.8637 139.388 45.9674 138.388 45.422 136.475C43.9335 131.255 51.7012 128.928 57.6451 129.855Z" fill="#F9D006"/>
<path fill-rule="evenodd" clip-rule="evenodd" d="M72.9226 141.06C77.6166 141.047 81.4013 146.24 80.0528 150.736C78.5005 155.912 68.8805 157.012 66.3018 152.264C64.9729 149.817 65.0026 147.597 66.3018 145.134C67.7184 142.449 69.8867 141.068 72.9226 141.06Z" fill="#F9D006"/>
</svg>
